<svg width="33" height="27" viewBox="0 0 33 27" fill="none" xmlns="http://www.w3.org/2000/svg">
<g id="arrow/active">
<path id="Ellipse 3" d="M33 13.5C33 20.6797 27.1797 26.5 20 26.5C12.8203 26.5 7 20.6797 7 13.5C7 6.3203 12.8203 0.5 20 0.5C27.1797 0.5 33 6.3203 33 13.5Z" fill="#31C880"/>
<path id="Arrow 1 (Stroke)" fill-rule="evenodd" clip-rule="evenodd" d="M16.5862 9.6591L19.8498 13.1159C20.0501 13.328 20.0501 13.672 19.8498 13.8841L16.5862 17.3409C16.386 17.553 16.0613 17.553 15.861 17.3409C15.6607 17.1288 15.6607 16.7849 15.861 16.5727L18.2491 14.0432H0V12.9568H18.2491L15.861 10.4273C15.6607 10.2151 15.6607 9.87122 15.861 9.6591C16.0613 9.44697 16.386 9.44697 16.5862 9.6591Z" fill="#111111" fill-opacity="0.7"/>
</g>
</svg>
