<svg width="16" height="17" viewBox="0 0 16 17" fill="none" xmlns="http://www.w3.org/2000/svg">
<path id="icon_Search" fill-rule="evenodd" clip-rule="evenodd" d="M5.70329 0.523964C4.53467 0.685713 3.49682 1.0975 2.62045 1.74728C2.26159 2.01332 1.6942 2.55942 1.40516 2.91689C0.756265 3.71945 0.285134 4.74983 0.0858554 5.80236C-0.0219489 6.37157 -0.0295599 7.49777 0.070562 8.06198C0.310433 9.41374 0.940143 10.6195 1.90341 11.5717C2.97692 12.6328 4.25606 13.2481 5.75625 13.425C6.1939 13.4766 7.18025 13.4479 7.59189 13.3716C8.9743 13.1153 10.1307 12.5018 11.1072 11.5064C12.8047 9.77597 13.3903 7.28968 12.6462 4.97135C11.9197 2.70812 9.95787 1.0006 7.59711 0.57688C7.20412 0.506349 6.06137 0.474443 5.70329 0.523964ZM7.38271 1.72391C7.56941 1.75425 7.90891 1.84086 8.13709 1.91635C11.265 2.95123 12.7098 6.49033 11.2011 9.42174C10.1093 11.5432 7.69855 12.686 5.36384 12.1888C3.24059 11.7366 1.59487 10.0208 1.21728 7.86546C1.13331 7.38601 1.13331 6.55843 1.21728 6.07898C1.64239 3.65243 3.60949 1.86783 6.09635 1.65252C6.36641 1.62916 7.02428 1.66564 7.38271 1.72391ZM11.9666 12.2814C11.7998 12.3883 11.7063 12.5594 11.7063 12.7581C11.7063 12.8504 11.7241 12.961 11.7458 13.004C11.8019 13.1149 15.063 16.381 15.1795 16.4429C15.6269 16.6807 16.1807 16.127 15.9429 15.6796C15.881 15.5631 12.6147 12.3022 12.5037 12.2461C12.3747 12.1808 12.0949 12.1992 11.9666 12.2814Z" fill="#19D894"/>
</svg>
