<svg width="76" height="33" viewBox="0 0 76 33" fill="none" xmlns="http://www.w3.org/2000/svg">
<path id="icon_unlimited" d="M4.07172 7.21108L4.07172 7.21109C-0.223905 12.6858 -0.223905 20.3048 4.07172 25.7794L4.18973 25.6868L4.07172 25.7794C7.6146 30.2945 13.0977 32.565 19.15 32.0332C24.4957 31.5634 28.5697 29.5837 32.7747 25.4212C34.472 23.741 36.3715 21.4353 39.2094 17.6142C44.4275 10.588 46.906 8.0362 50.3225 6.13447C54.0808 4.04253 59.021 3.48393 62.8775 4.70896C66.1953 5.76293 68.906 8.01627 70.4562 11.0048C70.9819 12.0183 71.2998 12.7727 71.4879 13.579C71.6762 14.3861 71.7363 15.2534 71.7363 16.4953C71.7363 18.2886 71.6854 18.7712 71.4146 19.678C70.1985 23.7493 67.0002 26.9752 62.8855 28.2775C58.2859 29.7333 52.7815 28.769 48.6075 25.7679C47.1479 24.7185 45.048 22.7588 43.8236 21.3031C43.3266 20.7122 42.9598 20.3294 42.6176 20.0961C42.2659 19.8564 41.9438 19.7768 41.5481 19.7768C40.5789 19.7768 39.8332 20.7385 40.0804 21.6738C40.1169 21.812 40.2221 21.9942 40.3629 22.1979C40.5073 22.4069 40.7012 22.655 40.9312 22.9295C41.3916 23.4788 42.0031 24.1409 42.6693 24.8181C44 26.1707 45.561 27.5962 46.5857 28.3111C50.8091 31.2574 55.9078 32.6014 60.6624 32.0154C65.2132 31.4543 69.21 29.2436 71.9283 25.7794L71.8103 25.6868L71.9283 25.7794C76.2239 20.3048 76.2239 12.6858 71.9283 7.21109L71.8103 7.30368L71.9283 7.21108C68.3854 2.696 62.9023 0.425561 56.85 0.95731C51.5043 1.42711 47.4303 3.40684 43.2253 7.56933C41.528 9.2495 39.6285 11.5552 36.7906 15.3764C31.5725 22.4025 29.094 24.9543 25.6775 26.8561C21.9192 28.948 16.979 29.5066 13.1225 28.2816C9.80467 27.2276 7.09399 24.9743 5.54384 21.9857C5.01814 20.9722 4.70025 20.2179 4.51214 19.4115C4.32385 18.6044 4.26371 17.7372 4.26371 16.4953C4.26371 14.7019 4.31462 14.2193 4.58536 13.3125C5.80153 9.24124 8.99985 6.01529 13.1145 4.71299C17.7141 3.25727 23.2185 4.22158 27.3925 7.2226C28.8521 8.27199 30.952 10.2317 32.1764 11.6875C32.6734 12.2784 33.0402 12.6611 33.3824 12.8944C33.7341 13.1341 34.0562 13.2137 34.4519 13.2137C35.4211 13.2137 36.1668 12.2521 35.9196 11.3168C35.8831 11.1785 35.7779 10.9963 35.6371 10.7926C35.4927 10.5837 35.2988 10.3355 35.0688 10.061C34.6084 9.5117 33.9969 8.84968 33.3307 8.17239C32 6.8198 30.439 5.39436 29.4143 4.67948C25.0387 1.62702 19.7951 0.317089 14.8539 1.04812L14.8758 1.19649L14.8539 1.04812C10.4884 1.69412 6.70474 3.85551 4.07172 7.21108Z" fill="#19D894" stroke="#19D894" stroke-width="0.3"/>
</svg>
