<svg width="22" height="22" viewBox="0 0 22 22" fill="none" xmlns="http://www.w3.org/2000/svg">
<g id="icon_wifi">
<g id="Group">
<path id="Vector" d="M11.0783 3.20835C10.2168 3.20844 9.37462 3.46401 8.65833 3.94274C7.94203 4.42146 7.38378 5.10185 7.05417 5.89785C7.01962 5.98133 6.96897 6.05719 6.9051 6.1211C6.84124 6.18501 6.76541 6.23571 6.68195 6.27031C6.59849 6.30491 6.50903 6.32274 6.41868 6.32276C6.32833 6.32279 6.23886 6.30503 6.15538 6.27048C6.0719 6.23593 5.99604 6.18527 5.93213 6.12141C5.86823 6.05754 5.81752 5.98171 5.78292 5.89825C5.74832 5.81479 5.7305 5.72533 5.73047 5.63499C5.73044 5.54464 5.74821 5.45517 5.78276 5.37169C6.21641 4.32426 6.95096 3.42897 7.8935 2.79906C8.83605 2.16916 9.94423 1.83295 11.0779 1.83295C12.2115 1.83295 13.3197 2.16916 14.2623 2.79906C15.2048 3.42897 15.9394 4.32426 16.373 5.37169C16.4428 5.54016 16.4428 5.72946 16.373 5.89793C16.3032 6.0664 16.1693 6.20024 16.0008 6.27002C15.8324 6.33979 15.6431 6.33978 15.4746 6.26999C15.3061 6.20019 15.1723 6.06633 15.1025 5.89785C14.7729 5.10185 14.2147 4.42146 13.4984 3.94274C12.7821 3.46401 11.9399 3.20844 11.0783 3.20835Z" fill="#252527"/>
<path id="Vector_2" d="M11.0795 5.50003C10.6335 5.50006 10.1995 5.6446 9.84253 5.91198C9.48558 6.17936 9.22487 6.5552 9.09945 6.9832C9.0484 7.15824 8.9299 7.30583 8.77003 7.39351C8.61015 7.48118 8.422 7.50175 8.24695 7.4507C8.07191 7.39964 7.92432 7.28114 7.83665 7.12127C7.74897 6.96139 7.7284 6.77324 7.77945 6.5982C7.98827 5.88469 8.42271 5.25808 9.01766 4.81229C9.61261 4.3665 10.336 4.12555 11.0795 4.12555C11.8229 4.12555 12.5463 4.3665 13.1412 4.81229C13.7362 5.25808 14.1706 5.88469 14.3795 6.5982C14.4305 6.77324 14.4099 6.96139 14.3223 7.12127C14.2346 7.28114 14.087 7.39964 13.912 7.4507C13.7369 7.50175 13.5488 7.48118 13.3889 7.39351C13.229 7.30583 13.1105 7.15824 13.0595 6.9832C12.934 6.5552 12.6733 6.17936 12.3164 5.91198C11.9594 5.6446 11.5254 5.50006 11.0795 5.50003Z" fill="#252527"/>
<path id="Vector_3" d="M11.9935 7.10417C11.9935 7.34728 11.8969 7.58044 11.725 7.75235C11.5531 7.92426 11.3199 8.02083 11.0768 8.02083C10.8337 8.02083 10.6006 7.92426 10.4286 7.75235C10.2567 7.58044 10.1602 7.34728 10.1602 7.10417C10.1602 6.86105 10.2567 6.62789 10.4286 6.45599C10.6006 6.28408 10.8337 6.1875 11.0768 6.1875C11.3199 6.1875 11.5531 6.28408 11.725 6.45599C11.8969 6.62789 11.9935 6.86105 11.9935 7.10417Z" fill="#252527"/>
<path id="Vector_4" fill-rule="evenodd" clip-rule="evenodd" d="M3.3474 4.01316C3.25467 3.85945 3.10549 3.7481 2.93175 3.70292C2.75801 3.65774 2.57349 3.6823 2.41763 3.77137C2.26176 3.86044 2.14692 4.00694 2.09763 4.17956C2.04835 4.35218 2.06855 4.53723 2.1539 4.69516L5.62532 10.7708H5.50065C3.77182 10.7708 2.90832 10.7708 2.37115 11.308C1.83398 11.8452 1.83398 12.7087 1.83398 14.4375C1.83398 16.1663 1.83398 17.0298 2.37115 17.567C2.90832 18.1042 3.77182 18.1042 5.50065 18.1042H16.5007C18.2295 18.1042 19.093 18.1042 19.6301 17.567C20.1673 17.0298 20.1673 16.1663 20.1673 14.4375C20.1673 12.7087 20.1673 11.8452 19.6301 11.308C19.093 10.7708 18.2295 10.7708 16.5007 10.7708H16.376L19.8474 4.69516C19.9328 4.53723 19.9529 4.35218 19.9037 4.17956C19.8544 4.00694 19.7395 3.86044 19.5837 3.77137C19.4278 3.6823 19.2433 3.65774 19.0695 3.70292C18.8958 3.7481 18.7466 3.85945 18.6539 4.01316L14.9872 10.4298L14.7856 10.7708H7.22398L7.01315 10.4298L3.3474 4.01316ZM5.50065 15.3542C5.74377 15.3542 5.97692 15.2576 6.14883 15.0857C6.32074 14.9138 6.41732 14.6806 6.41732 14.4375C6.41732 14.1944 6.32074 13.9612 6.14883 13.7893C5.97692 13.6174 5.74377 13.5208 5.50065 13.5208C5.25754 13.5208 5.02438 13.6174 4.85247 13.7893C4.68056 13.9612 4.58398 14.1944 4.58398 14.4375C4.58398 14.6806 4.68056 14.9138 4.85247 15.0857C5.02438 15.2576 5.25754 15.3542 5.50065 15.3542ZM9.16732 14.4375C9.16732 14.6806 9.07074 14.9138 8.89883 15.0857C8.72692 15.2576 8.49377 15.3542 8.25065 15.3542C8.00754 15.3542 7.77438 15.2576 7.60247 15.0857C7.43056 14.9138 7.33398 14.6806 7.33398 14.4375C7.33398 14.1944 7.43056 13.9612 7.60247 13.7893C7.77438 13.6174 8.00754 13.5208 8.25065 13.5208C8.49377 13.5208 8.72692 13.6174 8.89883 13.7893C9.07074 13.9612 9.16732 14.1944 9.16732 14.4375ZM12.834 13.75C12.6516 13.75 12.4768 13.8224 12.3478 13.9514C12.2189 14.0803 12.1465 14.2552 12.1465 14.4375C12.1465 14.6198 12.2189 14.7947 12.3478 14.9236C12.4768 15.0526 12.6516 15.125 12.834 15.125H16.5007C16.683 15.125 16.8579 15.0526 16.9868 14.9236C17.1157 14.7947 17.1882 14.6198 17.1882 14.4375C17.1882 14.2552 17.1157 14.0803 16.9868 13.9514C16.8579 13.8224 16.683 13.75 16.5007 13.75H12.834Z" fill="#252527"/>
</g>
</g>
</svg>
