<svg width="22" height="22" viewBox="0 0 22 22" fill="none" xmlns="http://www.w3.org/2000/svg">
<g id="icon_phone">
<path id="Vector" d="M14.209 0.916687H6.87565C6.26786 0.916687 5.68497 1.15813 5.2552 1.5879C4.82543 2.01767 4.58398 2.60057 4.58398 3.20835V18.7917C4.58398 19.3995 4.82543 19.9824 5.2552 20.4121C5.68497 20.8419 6.26786 21.0834 6.87565 21.0834H14.209C14.8168 21.0834 15.3997 20.8419 15.8294 20.4121C16.2592 19.9824 16.5007 19.3995 16.5007 18.7917V3.20835C16.5007 2.60057 16.2592 2.01767 15.8294 1.5879C15.3997 1.15813 14.8168 0.916687 14.209 0.916687ZM10.5423 20.1667C9.78148 20.1667 9.16732 19.5525 9.16732 18.7917C9.16732 18.0309 9.78148 17.4167 10.5423 17.4167C11.3032 17.4167 11.9173 18.0309 11.9173 18.7917C11.9173 19.5525 11.3032 20.1667 10.5423 20.1667ZM14.6673 16.5H6.41732V3.66669H14.6673V16.5Z" fill="#252527"/>
</g>
</svg>
