<svg width="22" height="22" viewBox="0 0 22 22" fill="none" xmlns="http://www.w3.org/2000/svg">
<g id="icon_tv">
<g id="Group 48095964">
<path id="Vector" d="M8.54545 9.4V15.8L14.2727 12.6L8.54545 9.4ZM18.3636 6.2H12.1618L14.8536 3.568L14.2727 3L11 6.2H10.9755L7.70273 3L7.13818 3.568L9.82182 6.2H3.63636C2.73636 6.2 2 6.92 2 7.8V17.4C2 18.28 2.73636 19 3.63636 19H18.3636C19.2636 19 20 18.28 20 17.4V7.8C20 6.92 19.2636 6.2 18.3636 6.2ZM18.3636 17.4H3.63636V7.8H18.3636V17.4Z" fill="#252527"/>
<rect id="Rectangle 39902" x="2.07422" y="6.40875" width="17.8512" height="12.5217" rx="3" fill="#252527"/>
<path id="Polygon 10" d="M14.5703 12.6697L9.21494 15.9229L9.21494 9.41643L14.5703 12.6697Z" fill="white"/>
</g>
</g>
</svg>
