<svg width="11" height="12" viewBox="0 0 11 12" fill="none" xmlns="http://www.w3.org/2000/svg">
<path id="icon_rub" fill-rule="evenodd" clip-rule="evenodd" d="M2.33539 0.0343066C2.18931 0.11311 2.19649 -0.0365036 2.19649 2.92573V5.62261L1.18336 5.62943C0.208879 5.63597 0.168256 5.63801 0.118138 5.68306C0.00380254 5.78577 0 5.81343 0 6.53979C0 7.11342 0.00597538 7.23552 0.0372458 7.30094C0.109092 7.45118 0.121468 7.45278 1.214 7.45278H2.19649V7.94383V8.43488L1.19753 8.44191C0.276758 8.44841 0.193433 8.4523 0.132758 8.49179C0.00708544 8.57355 -0.0028814 8.63768 0.00481811 9.31561C0.011384 9.89398 0.0147613 9.93579 0.0590454 9.98504C0.160698 10.0981 0.194047 10.1014 1.22739 10.1014H2.19649V10.9358C2.19649 11.6596 2.20161 11.781 2.2351 11.851C2.30534 11.9979 2.31909 12 3.20909 12H4.01147L4.08344 11.9399C4.12302 11.9068 4.16629 11.8409 4.17959 11.7934C4.1939 11.7423 4.20382 11.3795 4.20389 10.9042L4.20403 10.1014L6.3828 10.1014C8.40979 10.1013 8.56734 10.0985 8.64424 10.0604C8.79804 9.9841 8.8095 9.92968 8.80952 9.27443C8.80957 8.63862 8.79804 8.57064 8.67679 8.49179C8.61437 8.4512 8.49576 8.44862 6.40749 8.4425L4.20403 8.43605V7.94442V7.45278H5.78737C7.40727 7.45278 7.62949 7.44345 8.07089 7.35682C9.2098 7.13335 10.1475 6.42027 10.6502 5.39546C11.0597 4.56065 11.116 3.30751 10.7857 2.37817C10.373 1.21717 9.36117 0.358917 8.09214 0.0935377C7.66236 0.00367142 7.51034 -0.000805496 4.92438 8.51977e-05C2.78472 0.000811816 2.38777 0.00606222 2.33539 0.0343066ZM7.56962 1.89377C8.22556 2.07833 8.70692 2.53612 8.88031 3.14032C8.94559 3.36782 8.96909 3.8194 8.92875 4.07069C8.797 4.89126 8.17195 5.48303 7.31402 5.59943C7.19938 5.61499 6.57423 5.62451 5.66666 5.62451H4.20403V3.72485V1.82519L5.79235 1.8329C7.36017 1.84052 7.3831 1.84131 7.56962 1.89377Z" fill="#19D894"/>
</svg>
