<svg width="25" height="28" viewBox="0 0 25 28" fill="none" xmlns="http://www.w3.org/2000/svg">
<path id="icon_rub" fill-rule="evenodd" clip-rule="evenodd" d="M5.3077 0.0800487C4.9757 0.263922 4.99202 -0.085175 4.99202 6.82671V13.1194L2.68946 13.1353C0.474725 13.1506 0.382399 13.1554 0.268495 13.2605C0.00864213 13.5001 0 13.5647 0 15.2595C0 16.598 0.0135804 16.8829 0.0846496 17.0355C0.247937 17.3861 0.276064 17.3898 2.75908 17.3898H4.99202V18.5356V19.6814L2.72167 19.6978C0.628994 19.7129 0.43962 19.722 0.301722 19.8142C0.0161033 20.0049 -0.00654864 20.1546 0.0109503 21.7364C0.0258726 23.086 0.0335485 23.1835 0.134194 23.2984C0.365222 23.5622 0.441015 23.57 2.78952 23.57H4.99202V25.5169C4.99202 27.2057 5.00367 27.4889 5.07978 27.6523C5.23942 27.9951 5.27066 28 7.29339 28H9.11698L9.28054 27.8598C9.3705 27.7826 9.46884 27.6288 9.49906 27.5179C9.53159 27.3986 9.55413 26.5521 9.55429 25.4432L9.55462 23.57L14.5064 23.5699C19.1131 23.5698 19.4712 23.5631 19.646 23.4742C19.9956 23.2962 20.0216 23.1692 20.0216 21.6403C20.0217 20.1568 19.9956 19.9982 19.72 19.8142C19.5781 19.7195 19.3085 19.7134 14.5625 19.6992L9.55462 19.6841V18.537V17.3898H13.1531C16.8347 17.3898 17.3397 17.368 18.3429 17.1659C20.9314 16.6445 23.0626 14.9806 24.2051 12.5894C25.1357 10.6415 25.2635 7.71753 24.5128 5.54906C23.5751 2.84007 21.2754 0.837474 18.3912 0.218255C17.4145 0.00856662 17.0689 -0.00187949 11.1918 0.000198795C6.32891 0.00189424 5.42675 0.0141452 5.3077 0.0800487ZM17.2037 4.4188C18.6945 4.84944 19.7885 5.91762 20.1825 7.32741C20.3309 7.85825 20.3843 8.91194 20.2926 9.49829C19.9932 11.4129 18.5726 12.7937 16.6228 13.0653C16.3622 13.1017 14.9414 13.1239 12.8788 13.1239H9.55462V8.69131V4.25877L13.1644 4.27676C16.7277 4.29454 16.7798 4.2964 17.2037 4.4188Z" fill="#19D894"/>
</svg>
