<svg width="20" height="20" viewBox="0 0 20 20" fill="none" xmlns="http://www.w3.org/2000/svg">
<g id="icon_Playmarket">
<path id="Vector" d="M14.7551 13.0801C17.2917 11.7768 19.2147 10.7837 19.3804 10.7064C19.9106 10.4426 20.4582 9.74425 19.3804 9.2018C19.0324 9.0312 17.1589 8.069 14.7551 6.82812L11.4227 9.97731L14.7551 13.0801V13.0801Z" fill="#FFD900"/>
<path id="Vector_2" d="M11.4229 9.97754L0.812408 19.9844C1.06146 20.0152 1.34263 19.9534 1.67413 19.7829C2.37011 19.4264 9.7481 15.6561 14.7553 13.0811L11.4229 9.97754Z" fill="#F43249"/>
<path id="Vector_3" d="M11.4229 9.97763L14.7552 6.84395C14.7552 6.84395 2.42038 0.544781 1.67408 0.172934C1.39291 0.017102 1.07782 -0.0291869 0.795868 0.017102L11.4229 9.97763V9.97763Z" fill="#00EE76"/>
<path id="Vector_4" d="M11.4228 9.97762L0.795768 0.0170898C0.364476 0.110399 0 0.466963 0 1.19618V18.8053C0 19.4728 0.282032 19.9535 0.812257 19.9999L11.4228 9.97762Z" fill="#00D3FF"/>
</g>
</svg>
