<svg width="20" height="20" viewBox="0 0 20 20" fill="none" xmlns="http://www.w3.org/2000/svg">
<g id="icon_Appstore">
<path id="Vector" d="M4.38 0H15.62C18.0391 0 20 1.96094 20 4.38V15.62C20 18.0391 18.0391 20 15.62 20H4.38C1.96094 20 0 18.0391 0 15.62V4.38C0 1.96094 1.96094 0 4.38 0Z" fill="url(#paint0_linear_1_1421)"/>
<path id="Vector_2" d="M6.40958 14.5165L6.41146 14.5171L5.72763 15.7015C5.47802 16.1338 4.92521 16.282 4.49286 16.0323C4.0606 15.7827 3.91239 15.2299 4.162 14.7976L4.66575 13.9251L4.71411 13.8413C4.80044 13.7173 5.01349 13.5031 5.43966 13.5434C5.43966 13.5434 6.44255 13.6522 6.51513 14.1734C6.51513 14.1734 6.52497 14.3449 6.40958 14.5165V14.5165ZM16.1083 11.4915H13.9759C13.8307 11.4817 13.7673 11.4298 13.7423 11.3997L13.7408 11.397L11.4582 7.44336L11.4552 7.44532L11.3183 7.24907C11.094 6.90594 10.7377 7.78344 10.7377 7.78344C10.3123 8.76125 10.7981 9.8729 10.9674 10.2089L14.1379 15.7003C14.3874 16.1326 14.9402 16.2808 15.3726 16.0311C15.8049 15.7815 15.9531 15.2287 15.7034 14.7963L14.9107 13.4232C14.8953 13.3899 14.8686 13.2996 15.0311 13.2992H16.1083C16.6075 13.2992 17.0122 12.8945 17.0122 12.3953C17.0122 11.8961 16.6075 11.4914 16.1083 11.4914V11.4915ZM11.9665 12.7202C11.9665 12.7202 12.0804 13.2992 11.64 13.2992H3.75724C3.25802 13.2992 2.85333 12.8945 2.85333 12.3953C2.85333 11.8961 3.25802 11.4914 3.75724 11.4914H5.7838C6.11099 11.4725 6.18849 11.2836 6.18849 11.2836L6.19036 11.2845L8.83568 6.70266L8.83489 6.7025C8.8831 6.61399 8.84294 6.53032 8.83599 6.51711L7.96232 5.00391C7.71271 4.57164 7.86083 4.01875 8.29318 3.76922C8.72552 3.51961 9.27833 3.66766 9.52794 4.1L9.9331 4.8018L10.3376 4.10125C10.5872 3.66899 11.14 3.52079 11.5723 3.77047C12.0047 4.02008 12.1528 4.57282 11.9032 5.00516L8.22208 11.3809C8.20599 11.4198 8.20107 11.4807 8.32083 11.4914H10.5211L10.5216 11.5129C10.5216 11.5129 11.7933 11.5327 11.9665 12.7202Z" fill="white"/>
</g>
<defs>
<linearGradient id="paint0_linear_1_1421" x1="10" y1="0" x2="10" y2="20" gradientUnits="userSpaceOnUse">
<stop stop-color="#17C9FB"/>
<stop offset="1" stop-color="#1A74E8"/>
</linearGradient>
</defs>
</svg>
