<svg width="33" height="26" viewBox="0 0 33 26" fill="none" xmlns="http://www.w3.org/2000/svg">
<g id="arrow/nonactive">
<path id="Ellipse 3" d="M33 13C33 20.1797 27.1797 26 20 26C12.8203 26 7 20.1797 7 13C7 5.8203 12.8203 0 20 0C27.1797 0 33 5.8203 33 13Z" fill="#E7E7E7"/>
<path id="Arrow 1 (Stroke)" fill-rule="evenodd" clip-rule="evenodd" d="M16.5862 9.1591L19.8498 12.6159C20.0501 12.828 20.0501 13.172 19.8498 13.3841L16.5862 16.8409C16.386 17.053 16.0613 17.053 15.861 16.8409C15.6607 16.6288 15.6607 16.2849 15.861 16.0727L18.2491 13.5432H0V12.4568H18.2491L15.861 9.92728C15.6607 9.71515 15.6607 9.37122 15.861 9.1591C16.0613 8.94697 16.386 8.94697 16.5862 9.1591Z" fill="#ACACAD" fill-opacity="0.7"/>
</g>
</svg>
