<svg width="41" height="40" viewBox="0 0 41 40" fill="none" xmlns="http://www.w3.org/2000/svg">
<g id="icons">
<g id="icon_wifi">
<path id="Vector" d="M20.1386 5.53589C18.5878 5.53606 17.0719 6.00726 15.7826 6.88991C14.4932 7.77256 13.4884 9.02702 12.8951 10.4946C12.8329 10.6486 12.7417 10.7884 12.6268 10.9063C12.5118 11.0241 12.3753 11.1176 12.2251 11.1814C12.0749 11.2452 11.9138 11.278 11.7512 11.2781C11.5886 11.2781 11.4275 11.2454 11.2773 11.1817C11.127 11.118 10.9904 11.0246 10.8754 10.9068C10.7604 10.7891 10.6691 10.6493 10.6068 10.4954C10.5446 10.3415 10.5125 10.1766 10.5124 10.01C10.5124 9.84341 10.5444 9.67845 10.6065 9.52453C11.3871 7.59334 12.7093 5.94265 14.4059 4.78127C16.1025 3.6199 18.0972 3 20.1378 3C22.1783 3 24.1731 3.6199 25.8696 4.78127C27.5662 5.94265 28.8884 7.59334 29.669 9.52453C29.7946 9.83516 29.7946 10.1842 29.6689 10.4948C29.5433 10.8054 29.3024 11.0522 28.9991 11.1808C28.6958 11.3095 28.3551 11.3094 28.0518 11.1808C27.7486 11.0521 27.5077 10.8053 27.3821 10.4946C26.7888 9.02702 25.7839 7.77256 24.4946 6.88991C23.2053 6.00726 21.6894 5.53606 20.1386 5.53589Z" fill="#31C880"/>
<path id="Vector_2" d="M20.1402 9.76124C19.3374 9.7613 18.5563 10.0278 17.9137 10.5208C17.2712 11.0138 16.8019 11.7067 16.5762 12.4958C16.4843 12.8186 16.271 13.0907 15.9832 13.2523C15.6955 13.414 15.3568 13.4519 15.0417 13.3578C14.7266 13.2636 14.461 13.0452 14.3031 12.7504C14.1453 12.4556 14.1083 12.1087 14.2002 11.786C14.5761 10.4705 15.3581 9.31515 16.429 8.49323C17.4999 7.67131 18.802 7.22705 20.1402 7.22705C21.4784 7.22705 22.7805 7.67131 23.8514 8.49323C24.9223 9.31515 25.7043 10.4705 26.0802 11.786C26.1721 12.1087 26.1351 12.4556 25.9773 12.7504C25.8194 13.0452 25.5538 13.2636 25.2387 13.3578C24.9236 13.4519 24.5849 13.414 24.2972 13.2523C24.0094 13.0907 23.7961 12.8186 23.7042 12.4958C23.4784 11.7067 23.0092 11.0138 22.3667 10.5208C21.7241 10.0278 20.943 9.7613 20.1402 9.76124Z" fill="#31C880"/>
<path id="Vector_3" d="M21.7886 12.7189C21.7886 13.1671 21.6147 13.597 21.3053 13.914C20.9959 14.2309 20.5762 14.409 20.1386 14.409C19.701 14.409 19.2813 14.2309 18.9719 13.914C18.6624 13.597 18.4886 13.1671 18.4886 12.7189C18.4886 12.2707 18.6624 11.8408 18.9719 11.5238C19.2813 11.2069 19.701 11.0288 20.1386 11.0288C20.5762 11.0288 20.9959 11.2069 21.3053 11.5238C21.6147 11.8408 21.7886 12.2707 21.7886 12.7189Z" fill="#31C880"/>
<path id="Vector_4" fill-rule="evenodd" clip-rule="evenodd" d="M6.22415 7.0198C6.05724 6.73639 5.78872 6.53109 5.47599 6.44779C5.16325 6.36449 4.83112 6.40978 4.55056 6.574C4.27 6.73821 4.06328 7.00832 3.97457 7.32659C3.88587 7.64486 3.92221 7.98605 4.07585 8.27723L10.3244 19.4792H10.1C6.9881 19.4792 5.4338 19.4792 4.4669 20.4696C3.5 21.46 3.5 23.0521 3.5 26.2396C3.5 29.4271 3.5 31.0192 4.4669 32.0096C5.4338 33 6.9881 33 10.1 33H29.9C33.0119 33 34.5662 33 35.5331 32.0096C36.5 31.0192 36.5 29.4271 36.5 26.2396C36.5 23.0521 36.5 21.46 35.5331 20.4696C34.5662 19.4792 33.0119 19.4792 29.9 19.4792H29.6756L35.9241 8.27723C36.0778 7.98605 36.1141 7.64486 36.0254 7.32659C35.9367 7.00832 35.73 6.73821 35.4494 6.574C35.1689 6.40978 34.8367 6.36449 34.524 6.44779C34.2113 6.53109 33.9428 6.73639 33.7759 7.0198L27.1759 18.8505L26.8128 19.4792H13.202L12.8225 18.8505L6.22415 7.0198ZM10.1 27.9297C10.5376 27.9297 10.9573 27.7516 11.2667 27.4347C11.5762 27.1177 11.75 26.6878 11.75 26.2396C11.75 25.7914 11.5762 25.3615 11.2667 25.0445C10.9573 24.7276 10.5376 24.5495 10.1 24.5495C9.66239 24.5495 9.24271 24.7276 8.93327 25.0445C8.62384 25.3615 8.45 25.7914 8.45 26.2396C8.45 26.6878 8.62384 27.1177 8.93327 27.4347C9.24271 27.7516 9.66239 27.9297 10.1 27.9297ZM16.7 26.2396C16.7 26.6878 16.5262 27.1177 16.2167 27.4347C15.9073 27.7516 15.4876 27.9297 15.05 27.9297C14.6124 27.9297 14.1927 27.7516 13.8833 27.4347C13.5738 27.1177 13.4 26.6878 13.4 26.2396C13.4 25.7914 13.5738 25.3615 13.8833 25.0445C14.1927 24.7276 14.6124 24.5495 15.05 24.5495C15.4876 24.5495 15.9073 24.7276 16.2167 25.0445C16.5262 25.3615 16.7 25.7914 16.7 26.2396ZM23.3 24.972C22.9718 24.972 22.657 25.1056 22.425 25.3433C22.1929 25.581 22.0625 25.9034 22.0625 26.2396C22.0625 26.5758 22.1929 26.8982 22.425 27.1359C22.657 27.3736 22.9718 27.5072 23.3 27.5072H29.9C30.2282 27.5072 30.543 27.3736 30.775 27.1359C31.0071 26.8982 31.1375 26.5758 31.1375 26.2396C31.1375 25.9034 31.0071 25.581 30.775 25.3433C30.543 25.1056 30.2282 24.972 29.9 24.972H23.3Z" fill="#31C880"/>
</g>
</g>
</svg>
