<svg width="41" height="40" viewBox="0 0 41 40" fill="none" xmlns="http://www.w3.org/2000/svg">
<g id="icons">
<path id="icon_phone" d="M28.6923 0H13.3077C12.0326 0 10.8098 0.478895 9.90814 1.33133C9.00652 2.18377 8.5 3.33993 8.5 4.54545V35.4545C8.5 36.6601 9.00652 37.8162 9.90814 38.6687C10.8098 39.5211 12.0326 40 13.3077 40H28.6923C29.9674 40 31.1902 39.5211 32.0919 38.6687C32.9935 37.8162 33.5 36.6601 33.5 35.4545V4.54545C33.5 3.33993 32.9935 2.18377 32.0919 1.33133C31.1902 0.478895 29.9674 0 28.6923 0ZM21 38.1818C19.4038 38.1818 18.1154 36.9636 18.1154 35.4545C18.1154 33.9455 19.4038 32.7273 21 32.7273C22.5962 32.7273 23.8846 33.9455 23.8846 35.4545C23.8846 36.9636 22.5962 38.1818 21 38.1818ZM29.6538 30.9091H12.3462V5.45455H29.6538V30.9091Z" fill="#31C880"/>
</g>
</svg>
