<svg width="41" height="40" viewBox="0 0 41 40" fill="none" xmlns="http://www.w3.org/2000/svg">
<g id="icons" clip-path="url(#clip0_424_44888)">
<g id="icon_tv">
<path id="Vector" d="M15.0455 16.6V30.2L27.7727 23.4L15.0455 16.6ZM36.8636 9.8H23.0818L29.0636 4.207L27.7727 3L20.5 9.8H20.4455L13.1727 3L11.9182 4.207L17.8818 9.8H4.13636C2.13636 9.8 0.5 11.33 0.5 13.2V33.6C0.5 35.47 2.13636 37 4.13636 37H36.8636C38.8636 37 40.5 35.47 40.5 33.6V13.2C40.5 11.33 38.8636 9.8 36.8636 9.8ZM36.8636 33.6H4.13636V13.2H36.8636V33.6Z" fill="#31C880"/>
<rect id="Rectangle 39902" x="3.04553" y="11.8401" width="34.9091" height="23.46" fill="#31C880"/>
<path id="Polygon 10" d="M28.1364 23.5702L16.6819 29.3119L16.6819 17.8284L28.1364 23.5702Z" fill="white"/>
</g>
</g>
<defs>
<clipPath id="clip0_424_44888">
<rect width="40" height="40" fill="white" transform="translate(0.5)"/>
</clipPath>
</defs>
</svg>
