<svg width="57" height="56" viewBox="0 0 57 56" fill="none" xmlns="http://www.w3.org/2000/svg">
<g id="icon">
<path id="icon_procent" fill-rule="evenodd" clip-rule="evenodd" d="M23.3384 13.0982C22.4354 13.3813 21.9989 13.8991 20.9658 15.9129C20.1098 17.5819 20.1731 17.547 18.5943 17.2224C16.6479 16.8223 16.0107 16.755 15.4108 16.8859C14.688 17.0437 14.1802 17.4267 13.868 18.0491C13.5443 18.6943 13.4356 19.4291 13.4332 20.9869C13.4321 21.6659 13.3884 22.3315 13.3359 22.4661C13.2173 22.7705 12.8616 22.9195 11.5318 23.2226C9.43106 23.7013 8.76122 24.0262 8.30321 24.7887C7.76765 25.6802 7.86564 26.4033 8.78378 28.3335C9.11807 29.0364 9.41983 29.7211 9.45429 29.855C9.5782 30.3367 9.42482 30.5398 8.22192 31.4861C6.38468 32.9313 6 33.4529 6 34.4991C6 35.5453 6.38468 36.067 8.22192 37.5121C9.41484 38.4506 9.57781 38.6631 9.4588 39.1256C9.42684 39.2498 9.12019 39.9414 8.77735 40.6624C7.86612 42.5787 7.7665 43.3162 8.29889 44.2025C8.76449 44.9774 9.24688 45.2168 11.4041 45.7432C12.2159 45.9414 12.9805 46.1677 13.1032 46.2461C13.3826 46.4247 13.4128 46.6167 13.464 48.5436C13.5119 50.3457 13.6769 50.9367 14.3023 51.5468C15.0365 52.2631 15.9201 52.3391 18.0447 51.869C19.3438 51.5815 19.9629 51.5369 20.1825 51.7147C20.2696 51.7852 20.6062 52.375 20.9305 53.0255C21.9419 55.0538 22.5178 55.7084 23.4911 55.9362C24.4014 56.1492 25.0954 55.862 26.7836 54.5735C28.0849 53.5802 28.382 53.4356 28.7861 53.5989C28.9511 53.6655 29.6087 54.1167 30.2475 54.6017C30.8863 55.0865 31.5714 55.564 31.7699 55.6628C32.3695 55.9612 32.9871 56.0583 33.5089 55.9362C34.4711 55.711 35.1131 54.989 36.0238 53.1079C36.7115 51.6873 36.808 51.5814 37.3937 51.6064C37.649 51.6173 38.3518 51.7355 38.9553 51.869C41.0799 52.3391 41.9635 52.2631 42.6977 51.5468C43.3231 50.9367 43.4881 50.3457 43.536 48.5436C43.5872 46.6149 43.6172 46.4248 43.898 46.2453C44.0214 46.1664 44.7312 45.9562 45.4754 45.7782C46.2198 45.6 47.0441 45.3744 47.3074 45.2769C48.6171 44.7914 49.2337 43.7368 48.9534 42.4618C48.8939 42.191 48.5669 41.3883 48.2268 40.678C47.8866 39.9679 47.5802 39.2772 47.5457 39.1433C47.4218 38.6615 47.5752 38.4585 48.7781 37.5121C50.6153 36.067 51 35.5453 51 34.4991C51 33.4529 50.6153 32.9313 48.7781 31.4861C47.5752 30.5398 47.4218 30.3367 47.5457 29.855C47.5802 29.7211 47.8866 29.0304 48.2268 28.3202C49.1082 26.4796 49.2202 25.7512 48.7576 24.8668C48.3491 24.0854 47.7476 23.7779 45.6018 23.2531C44.7811 23.0525 44.0116 22.8255 43.8917 22.749C43.6181 22.574 43.5871 22.3739 43.536 20.4546C43.4881 18.6525 43.3231 18.0616 42.6977 17.4515C41.9628 16.7345 40.9931 16.6536 38.9045 17.1351C37.6986 17.413 37.038 17.4621 36.8249 17.2897C36.7421 17.2225 36.3404 16.5124 35.9323 15.7115C35.0278 13.9361 34.5142 13.3501 33.6478 13.1043C32.6473 12.8205 31.9837 13.076 30.2164 14.4248C28.9151 15.418 28.618 15.5627 28.2139 15.3994C28.0489 15.3327 27.3998 14.8879 26.7712 14.4108C25.078 13.1258 24.2549 12.8111 23.3384 13.0982ZM24.5991 26.2627C26.0435 26.7899 26.8923 27.9812 26.8986 29.4899C26.903 30.5484 26.6343 31.1859 25.869 31.9325C25.1255 32.6578 24.4527 32.935 23.4131 32.9447C21.8988 32.9586 20.6757 32.1583 20.0906 30.7706C19.8243 30.139 19.7864 29.1558 20.0015 28.4584C20.3046 27.476 21.2744 26.5165 22.2706 26.2135C22.9196 26.0162 23.9851 26.0386 24.5991 26.2627ZM36.3319 26.8589C36.5898 27.1105 36.6582 27.2527 36.6582 27.5371C36.6582 27.8889 36.4925 28.0585 29.1952 35.1773C21.8978 42.296 21.7239 42.4577 21.3633 42.4577C20.8392 42.4577 20.3418 41.9724 20.3418 41.4612C20.3418 41.1094 20.5075 40.9397 27.8048 33.821C35.1022 26.7023 35.2761 26.5406 35.6367 26.5406C35.9282 26.5406 36.074 26.6073 36.3319 26.8589ZM22.8852 28.0857C21.7631 28.4726 21.4817 29.8306 22.3627 30.6071C22.568 30.788 22.8845 30.9589 23.0807 30.9948C24.1158 31.1843 25.102 30.2222 24.9078 29.2125C24.8128 28.7184 24.2762 28.1779 23.7534 28.0495C23.2538 27.9268 23.3586 27.9224 22.8852 28.0857ZM34.8792 36.2582C35.8678 36.637 36.5709 37.3378 36.9522 38.3244C37.2432 39.0772 37.1867 40.2482 36.8246 40.9703C36.4976 41.6222 35.8018 42.3009 35.1335 42.6199C34.3933 42.9732 33.1929 43.0283 32.4212 42.7445C30.953 42.2045 30.1077 41.0252 30.1014 39.5083C30.0947 37.8841 31.1096 36.582 32.7254 36.142C33.3505 35.9716 34.2596 36.0207 34.8792 36.2582ZM32.941 38.1473C31.9788 38.5734 31.7761 39.8311 32.5526 40.5564C33.9681 41.8786 36.0857 39.8915 34.7543 38.4903C34.2485 37.9579 33.632 37.8413 32.941 38.1473Z" fill="#31C880"/>
</g>
</svg>
