<svg width="57" height="56" viewBox="0 0 57 56" fill="none" xmlns="http://www.w3.org/2000/svg">
<g id="icon_Safe">
<path id="icon_sms" fill-rule="evenodd" clip-rule="evenodd" d="M7.97149 10.1857C6.17281 10.7068 4.81079 12.0745 4.22485 13.9477L4 14.6666V27.6063V40.546L4.23747 41.2097C4.86843 42.9728 6.08035 44.2021 7.75672 44.7793C8.3501 44.9836 8.76069 45.0392 10.0336 45.0878L11.5866 45.1469V49.6897V54.2326L11.871 54.7817C12.2617 55.5358 12.8234 55.9236 13.6081 55.9809C14.7043 56.0608 14.5972 56.1534 20.0889 50.3737L25.0781 45.123L37.2987 45.0938L49.5193 45.0647L50.1774 44.8252C51.9151 44.1928 53.1093 43.0013 53.7354 41.2754L54 40.546V27.6063C54 15.3368 53.9903 14.6347 53.8127 14.0504C53.2161 12.0868 51.7652 10.6384 49.912 10.1566C49.3507 10.0107 47.1898 9.99464 28.9344 10.0012C9.98513 10.0081 8.54033 10.0207 7.97149 10.1857ZM27.5827 20.2395C28.0075 20.7191 27.991 21.1989 27.5336 21.6602L27.1874 22.0094H21.4695C15.3533 22.0094 15.32 22.0067 15.0519 21.5015C14.9061 21.2268 14.9266 20.5561 15.0872 20.3427C15.4604 19.8473 15.4292 19.8495 21.5491 19.8777L27.2856 19.9041L27.5827 20.2395ZM42.3746 26.5217C42.9685 26.7494 43.2487 27.5077 42.9481 28.0741C42.667 28.6039 43.2698 28.5819 29 28.5819C14.7302 28.5819 15.333 28.6039 15.0519 28.0741C14.9061 27.7994 14.9266 27.1287 15.0872 26.9153C15.4716 26.4049 14.8549 26.4266 28.9679 26.4259C36.921 26.4255 42.2226 26.4634 42.3746 26.5217ZM38.121 33.1482C38.3678 33.2522 38.5256 33.4137 38.6327 33.6724C38.8337 34.1577 38.7403 34.5665 38.3534 34.895L38.0476 35.1545H26.8996C14.9057 35.1545 15.3311 35.1728 15.0519 34.6466C14.9061 34.3719 14.9266 33.7012 15.0872 33.4878C15.469 32.9808 15.0299 32.9992 26.7884 32.9985C36.1953 32.998 37.8152 33.0193 38.121 33.1482Z" fill="#31C880"/>
</g>
</svg>
