<svg width="57" height="56" viewBox="0 0 57 56" fill="none" xmlns="http://www.w3.org/2000/svg">
<g id="icon_Safe">
<path id="icon_safe" fill-rule="evenodd" clip-rule="evenodd" d="M17.9213 13.5249L8 17.0833L8.038 26.4607C8.07486 35.5251 8.08351 35.8758 8.29789 36.9655C9.20374 41.5702 11.0117 44.9615 14.3531 48.3235C16.8902 50.8763 20.0391 52.9802 23.6556 54.5385C25.3722 55.2783 27.5176 56.0002 27.9989 56C28.497 55.9999 30.6431 55.2762 32.3593 54.5297C38.4308 51.8888 43.2263 47.7123 45.6508 42.954C46.6721 40.9495 47.2461 39.272 47.6998 36.9655C47.9142 35.8761 47.9229 35.5226 47.9608 26.4599L48 17.0817L38.1532 13.5577C32.7374 11.6195 28.202 10.0186 28.0745 10.0002C27.947 9.98171 23.3781 11.5679 17.9213 13.5249ZM31.9044 34.7608L24.6674 41.8842L20.7632 38.0423L16.8591 34.2005L18.0287 33.046L19.1983 31.8915L21.9329 34.5818L24.6676 37.2721L30.7315 31.3035L36.7953 25.3349L37.9683 26.4863L39.1413 27.6376L31.9044 34.7608Z" fill="#31C880"/>
</g>
</svg>
