<svg width="10" height="10" viewBox="0 0 10 10" fill="none" xmlns="http://www.w3.org/2000/svg">
<path id="icon_rub" fill-rule="evenodd" clip-rule="evenodd" d="M2.12308 0.0285888C1.99028 0.0942579 1.99681 -0.0304196 1.99681 2.43811V4.68551L1.07579 4.69119C0.18989 4.69664 0.15296 4.69834 0.107398 4.73588C0.00345685 4.82148 0 4.84453 0 5.44983C0 5.92785 0.00543217 6.0296 0.0338598 6.08411C0.0991747 6.20932 0.110426 6.21065 1.10363 6.21065H1.99681V6.61986V7.02907L1.08867 7.03493C0.251598 7.04034 0.175848 7.04358 0.120689 7.07649C0.00644132 7.14462 -0.00261946 7.19807 0.0043801 7.76301C0.0103491 8.24498 0.0134194 8.27983 0.0536776 8.32087C0.146089 8.41507 0.176406 8.41785 1.11581 8.41785H1.99681V9.11319C1.99681 9.71631 2.00147 9.81747 2.03191 9.87583C2.09577 9.99824 2.10826 10 2.91736 10H3.64679L3.71221 9.94992C3.7482 9.92236 3.78754 9.86743 3.79962 9.82784C3.81263 9.78522 3.82165 9.48289 3.82172 9.08684L3.82185 8.41785L5.80255 8.41781C7.64526 8.41779 7.78849 8.4154 7.8584 8.38363C7.99822 8.32009 8.00863 8.27473 8.00866 7.72869C8.0087 7.19885 7.99822 7.1422 7.88799 7.07649C7.83124 7.04266 7.72341 7.04051 5.82499 7.03542L3.82185 7.03005V6.62035V6.21065H5.26124C6.73388 6.21065 6.9359 6.20287 7.33717 6.13068C8.37255 5.94445 9.22503 5.35023 9.68202 4.49622C10.0543 3.80054 10.1054 2.75626 9.80514 1.98181C9.43004 1.01431 8.51016 0.299098 7.35649 0.0779481C6.96579 0.00305951 6.82758 -0.000671246 4.47671 7.09981e-05C2.53156 0.000676513 2.1707 0.00505185 2.12308 0.0285888ZM6.88147 1.57814C7.47778 1.73194 7.91539 2.11344 8.07301 2.61693C8.13235 2.80652 8.15371 3.18284 8.11704 3.39225C7.99728 4.07605 7.42905 4.56919 6.64911 4.66619C6.54489 4.67916 5.97657 4.68709 5.1515 4.68709H3.82185V3.10404V1.52099L5.26577 1.52741C6.69106 1.53376 6.71191 1.53443 6.88147 1.57814Z" fill="#111111"/>
</svg>
