<svg width="346" height="96" viewBox="0 0 346 96" fill="none" xmlns="http://www.w3.org/2000/svg">
<path d="M86.4181 90.8969H85.9181H1H0.5V90.3969C0.5 79.0524 2.1907 72.463 5.98109 66.4711C8.558 62.3004 12.7687 58.59 17.8401 55.2395C22.9167 51.8855 28.8892 48.8704 35.0246 46.1036C35.025 46.1034 35.0255 46.1032 35.0259 46.1029L47.8738 40.2196L86.4181 90.8969ZM86.4181 90.8969V90.3969V71.3003V70.8003H85.9181H49.6447C47.6923 70.8003 36.354 70.8986 32.7951 71.0073M86.4181 90.8969L32.7951 71.0073M32.7951 71.0073C33.7009 69.4324 35.5295 68.2272 39.5388 66.2227C45.0493 63.4676 50.5624 61.0705 56.2063 58.669L56.2075 58.6685C66.3045 54.3414 71.1554 51.7999 75.6501 48.3987L75.6549 48.395C79.732 45.2308 82.1002 42.1071 83.445 39.1703C84.7899 36.2332 85.0968 33.5144 85.0968 31.1854C85.0968 23.4031 82.049 17.3498 75.5387 13.2715C69.0695 9.21885 59.2276 7.14491 45.6811 7.14491C32.279 7.14491 21.5872 8.58182 14.2393 13.0118C6.83126 17.4779 2.90221 24.9318 2.90221 36.7102V37.2102H3.40221C4.47494 37.2102 10.7107 37.36 16.6919 37.5103C19.6795 37.5853 22.5995 37.6604 24.7727 37.7167C25.8592 37.7449 26.7591 37.7683 27.3873 37.7847L28.1152 37.8038L28.3065 37.8088L28.3555 37.8101L28.3679 37.8104L28.371 37.8105L28.3718 37.8105C28.3719 37.8105 28.372 37.8105 28.3852 37.3107L28.372 37.8105L28.8672 37.8236L28.8849 37.3285C29.0039 33.9954 29.5994 31.0561 31.5319 28.9403C33.4545 26.8354 36.8014 25.44 42.6783 25.44C44.8917 25.44 48.1217 25.5917 50.7836 26.5371C52.1108 27.0085 53.2631 27.6658 54.0803 28.5689C54.8876 29.4612 55.3905 30.6174 55.3905 32.1462C55.3905 35.656 52.5567 38.0582 47.8751 40.219L32.7951 71.0073ZM307.815 9.49293L308.104 9.08046L307.689 8.79465L297.24 1.58839L296.832 1.30711L296.547 1.7124L237.092 86.2659L236.805 86.6746L237.213 86.9623L247.783 94.4087L248.193 94.6976L248.481 94.2867L307.815 9.49293ZM194.699 50.1619C194.699 36.5023 190.981 25.6051 183.303 18.1262C175.627 10.6492 164.072 6.6645 148.558 6.6645C130.297 6.6645 117.51 10.7612 109.288 18.3266C101.058 25.8997 97.491 36.866 97.491 50.4021C97.491 66.9364 103.588 77.6962 112.788 84.3024C121.961 90.8884 134.151 93.299 146.275 93.299C161.543 93.299 173.659 89.5882 181.963 82.3054C190.277 75.0135 194.699 64.2032 194.699 50.1619ZM164.393 48.9608C164.393 55.4665 163.316 61.663 160.489 66.2174C157.685 70.7353 153.134 73.6828 146.035 73.6828C141.709 73.6828 138.441 72.5955 135.962 70.8798C133.48 69.1618 131.756 66.7904 130.56 64.1716C128.161 58.9173 127.918 52.7364 127.918 49.0809C127.918 44.1982 128.754 38.2647 131.498 33.5695C134.221 28.9102 138.836 25.44 146.516 25.44C150.545 25.44 153.653 26.4166 156.056 27.9807C158.462 29.5463 160.191 31.7202 161.429 34.1591C163.912 39.0518 164.393 44.961 164.393 48.9608ZM262.864 31.906C262.864 23.696 260.338 16.6475 255.144 11.6533C249.951 6.66068 242.156 3.78199 231.736 3.78199C221.099 3.78199 213.002 6.22878 207.562 11.0697C202.111 15.9199 199.407 23.1006 199.407 32.3864C199.407 43.2049 203.183 50.2697 208.882 54.6131C214.557 58.9384 222.068 60.5104 229.454 60.5104C239.356 60.5104 247.713 58.5505 253.603 53.9644C259.516 49.3601 262.864 42.1721 262.864 31.906ZM241.685 32.6266C241.685 36.2472 241.06 39.769 239.392 42.3705C237.747 44.937 235.058 46.6593 230.775 46.6593C226.634 46.6593 224.093 44.8363 222.558 42.2221C221.002 39.5707 220.465 36.0713 220.465 32.7467C220.465 27.5858 221.593 23.9589 223.435 21.6321C225.263 19.3219 227.842 18.2337 230.895 18.2337C235.291 18.2337 237.947 20.0392 239.534 22.6897C241.147 25.3816 241.685 28.9961 241.685 32.6266ZM345.5 63.7337C345.5 55.5237 342.974 48.4752 337.78 43.481C332.587 38.4883 324.792 35.6097 314.372 35.6097C300.57 35.6097 292.45 39.913 287.798 45.7052C283.162 51.4764 282.043 58.6354 282.043 64.2141C282.043 75.0326 285.819 82.0973 291.518 86.4408C297.193 90.7661 304.704 92.3381 312.09 92.3381C327.145 92.3381 335.542 87.8597 340.154 81.9675C344.748 76.0985 345.5 68.9325 345.5 63.7337ZM324.201 64.4543C324.201 68.0783 323.604 71.6004 321.966 74.2015C320.351 76.7655 317.693 78.4869 313.411 78.4869C309.145 78.4869 306.608 76.6605 305.106 74.0533C303.58 71.4041 303.101 67.9062 303.101 64.5744C303.101 59.4018 304.114 55.7766 305.895 53.4538C307.658 51.155 310.229 50.0614 313.531 50.0614C317.926 50.0614 320.551 51.8659 322.108 54.514C323.692 57.2056 324.201 60.8204 324.201 64.4543Z" stroke="#F4F4F5" stroke-opacity="0.19"/>
</svg>
