<svg width="516" height="366" viewBox="0 0 516 366" fill="none" xmlns="http://www.w3.org/2000/svg">
<circle cx="498.792" cy="113.974" r="36.4816" transform="rotate(15.0837 498.792 113.974)" fill="#F4F4F5" fill-opacity="0.2"/>
<g clip-path="url(#clip0_184_39956)">
<path d="M510.792 97.5511L496.829 93.7878C495.672 93.4759 494.444 93.6156 493.415 94.1762C492.386 94.7367 491.641 95.6723 491.343 96.7769L483.71 125.099C483.412 126.204 483.586 127.387 484.194 128.389C484.802 129.391 485.793 130.129 486.95 130.441L500.913 134.204C502.071 134.516 503.299 134.376 504.328 133.815C505.356 133.255 506.102 132.319 506.399 131.215L514.033 102.892C514.331 101.788 514.156 100.604 513.549 99.6026C512.941 98.6009 511.949 97.863 510.792 97.5511ZM494.381 130.656C492.932 130.266 492.064 128.834 492.436 127.452C492.809 126.069 494.279 125.268 495.728 125.658C497.177 126.048 498.045 127.48 497.673 128.863C497.3 130.246 495.83 131.047 494.381 130.656ZM504.031 126.109L488.323 121.875L494.609 98.5507L510.318 102.784L504.031 126.109Z" fill="#F4F4F5" fill-opacity="0.8"/>
</g>
<circle cx="160.785" cy="27.3116" r="36.4816" transform="rotate(15.0837 160.785 27.3116)" fill="#F4F4F5" fill-opacity="0.2"/>
<g clip-path="url(#clip1_184_39956)">
<path d="M172.785 10.8885L158.822 7.12523C157.665 6.81333 156.437 6.95303 155.408 7.51359C154.379 8.07415 153.634 9.00965 153.336 10.1143L145.703 38.4369C145.405 39.5415 145.579 40.7248 146.187 41.7265C146.795 42.7281 147.786 43.4661 148.944 43.778L162.907 47.5412C164.064 47.8531 165.292 47.7134 166.321 47.1529C167.35 46.5923 168.095 45.6568 168.393 44.5521L176.026 16.2296C176.324 15.1249 176.15 13.9416 175.542 12.94C174.934 11.9383 173.942 11.2004 172.785 10.8885ZM156.374 43.9936C154.926 43.6031 154.057 42.1717 154.43 40.7889C154.802 39.4061 156.273 38.605 157.721 38.9955C159.17 39.3859 160.038 40.8173 159.666 42.2001C159.293 43.5829 157.823 44.384 156.374 43.9936ZM166.024 39.4463L150.316 35.2126L156.602 11.8881L172.311 16.1218L166.024 39.4463Z" fill="#F4F4F5" fill-opacity="0.8"/>
</g>
<circle cx="254.036" cy="124.189" r="36.4816" transform="rotate(15.0837 254.036 124.189)" fill="#F4F4F5" fill-opacity="0.2"/>
<g clip-path="url(#clip2_184_39956)">
<path d="M255.165 131.089L254.228 131.694C254.228 131.694 251.998 133.129 248.706 126.682C245.414 120.236 247.644 118.801 247.644 118.801L248.236 118.419C249.69 117.481 250.332 115.521 249.745 113.804L248.546 110.295C247.819 108.169 245.542 107.301 243.74 108.462L240.51 110.541C239.617 111.118 238.892 111.978 238.652 113.088C238.041 115.925 237.558 122.252 242.017 130.989C246.749 140.253 252.992 142.254 255.649 142.682C256.49 142.819 257.326 142.546 258.07 142.067L260.995 140.182C262.971 138.91 263.32 135.912 261.688 134.211L259.152 131.562C258.081 130.445 256.463 130.253 255.166 131.088L255.165 131.089ZM257.21 109.002C257.35 108.689 257.601 108.443 257.909 108.318C258.218 108.194 258.558 108.201 258.855 108.337C258.892 108.356 259.016 108.417 259.08 108.452C259.206 108.518 259.382 108.619 259.598 108.752C260.03 109.024 260.624 109.44 261.312 110.033C262.687 111.22 264.431 113.118 265.997 115.997C267.562 118.878 268.234 121.429 268.512 123.283C268.65 124.211 268.69 124.961 268.694 125.495C268.696 125.763 268.688 126.031 268.669 126.299L268.663 126.353C268.627 126.697 268.462 127.016 268.205 127.24C267.948 127.464 267.62 127.576 267.29 127.552C266.965 127.521 266.668 127.357 266.465 127.096C266.261 126.834 266.167 126.496 266.203 126.156C266.22 125.964 266.226 125.77 266.221 125.577C266.213 124.961 266.162 124.348 266.069 123.742C265.832 122.159 265.245 119.903 263.837 117.311C262.43 114.719 260.88 113.049 259.707 112.036C259.259 111.646 258.784 111.291 258.286 110.974C258.132 110.879 257.976 110.789 257.817 110.704C257.52 110.566 257.289 110.31 257.175 109.992C257.062 109.673 257.074 109.318 257.209 109.002L257.21 109.002Z" fill="#F4F4F5" fill-opacity="0.8"/>
<path fill-rule="evenodd" clip-rule="evenodd" d="M256.02 114.847C256.105 114.7 256.217 114.572 256.349 114.47C256.48 114.367 256.63 114.292 256.788 114.249C256.946 114.206 257.11 114.196 257.27 114.219C257.431 114.242 257.584 114.298 257.722 114.383L257.727 114.386L257.731 114.389L257.743 114.396L257.772 114.415L257.852 114.472C258.228 114.756 258.579 115.074 258.901 115.421C259.547 116.114 260.391 117.199 261.284 118.844C262.177 120.488 262.64 121.806 262.881 122.745C263.001 123.215 263.064 123.588 263.097 123.858C263.115 123.999 263.128 124.141 263.135 124.284L263.134 124.32L263.135 124.334L263.134 124.339L263.135 124.341C263.135 124.341 263.134 124.345 261.899 124.38L263.134 124.345C263.13 124.682 262.999 125.007 262.77 125.25C262.541 125.494 262.232 125.637 261.909 125.648C261.586 125.66 261.275 125.539 261.041 125.312C260.808 125.084 260.672 124.769 260.661 124.432L260.661 124.415C260.628 124.094 260.571 123.778 260.491 123.468C260.304 122.744 259.921 121.622 259.125 120.156C258.328 118.691 257.606 117.778 257.108 117.245C256.895 117.016 256.665 116.805 256.42 116.613L256.406 116.602C256.132 116.427 255.938 116.144 255.866 115.815C255.793 115.486 255.848 115.139 256.02 114.847Z" fill="#F4F4F5" fill-opacity="0.8"/>
</g>
<circle cx="44.7184" cy="321.772" r="36.4816" transform="rotate(15.0837 44.7184 321.772)" fill="#F4F4F5" fill-opacity="0.2"/>
<g clip-path="url(#clip3_184_39956)">
<path d="M45.8472 328.672L44.9097 329.277C44.9097 329.277 42.6799 330.711 39.3881 324.265C36.0963 317.818 38.3261 316.384 38.3261 316.384L38.9176 316.002C40.3718 315.064 41.0143 313.103 40.4268 311.387L39.2282 307.877C38.5009 305.751 36.2243 304.884 34.4224 306.044L31.1915 308.124C30.2993 308.7 29.5738 309.561 29.3343 310.67C28.7227 313.508 28.2397 319.834 32.6993 328.572C37.4308 337.835 43.6739 339.836 46.3309 340.264C47.1721 340.402 48.0082 340.129 48.7517 339.65L51.6765 337.765C53.6533 336.493 54.0017 333.495 52.3702 331.793L49.8335 329.144C48.7626 328.028 47.1449 327.835 45.8476 328.67L45.8472 328.672ZM47.8923 306.585C48.0315 306.271 48.2828 306.025 48.5911 305.901C48.8994 305.776 49.2396 305.783 49.5369 305.92C49.5743 305.939 49.6977 305.999 49.7614 306.034C49.8882 306.1 50.0635 306.201 50.2795 306.335C50.7117 306.607 51.306 307.022 51.9938 307.615C53.3689 308.802 55.1125 310.7 56.6784 313.579C58.2439 316.46 58.9162 319.011 59.1941 320.866C59.3323 321.793 59.3717 322.544 59.3759 323.077C59.3782 323.345 59.37 323.614 59.3514 323.882L59.3454 323.936C59.3087 324.28 59.1442 324.598 58.8873 324.823C58.6304 325.047 58.3017 325.159 57.9721 325.135C57.6472 325.104 57.3503 324.94 57.1465 324.678C56.9427 324.417 56.8485 324.079 56.8846 323.739C56.9018 323.546 56.9079 323.353 56.9029 323.16C56.895 322.544 56.8442 321.93 56.7508 321.324C56.5137 319.741 55.927 317.485 54.5185 314.893C53.1117 312.302 51.5621 310.631 50.3885 309.618C49.941 309.228 49.4661 308.873 48.9676 308.556C48.814 308.462 48.6577 308.372 48.499 308.287C48.2016 308.149 47.9711 307.893 47.8573 307.574C47.7435 307.256 47.7555 306.9 47.8907 306.584L47.8923 306.585Z" fill="#F4F4F5" fill-opacity="0.8"/>
<path fill-rule="evenodd" clip-rule="evenodd" d="M46.7018 312.429C46.7871 312.283 46.8989 312.155 47.0306 312.052C47.1624 311.95 47.3116 311.875 47.4697 311.832C47.6278 311.789 47.7917 311.779 47.9521 311.802C48.1125 311.825 48.2661 311.88 48.4043 311.966L48.4087 311.969L48.413 311.972L48.4248 311.979L48.4538 311.997L48.5337 312.054C48.9094 312.339 49.2605 312.656 49.5832 313.004C50.2289 313.696 51.0733 314.782 51.9659 316.427C52.859 318.07 53.3222 319.389 53.5628 320.328C53.6828 320.798 53.7458 321.17 53.7786 321.44C53.7971 321.582 53.8098 321.724 53.8168 321.867L53.8158 321.902L53.8169 321.917L53.8156 321.922L53.8167 321.924C53.8167 321.924 53.8158 321.927 52.5809 321.963L53.8158 321.927C53.8114 322.264 53.6808 322.589 53.4519 322.833C53.223 323.076 52.914 323.219 52.5909 323.231C52.2678 323.242 51.9564 323.121 51.7232 322.894C51.49 322.667 51.3536 322.351 51.3431 322.015L51.3428 321.997C51.3094 321.677 51.2525 321.36 51.1724 321.05C50.9863 320.327 50.6028 319.205 49.8064 317.739C49.0101 316.273 48.2877 315.36 47.7897 314.828C47.5768 314.598 47.347 314.387 47.1022 314.196L47.0882 314.185C46.8139 314.009 46.6197 313.726 46.5474 313.398C46.4752 313.069 46.5304 312.722 46.7018 312.429Z" fill="#F4F4F5" fill-opacity="0.8"/>
</g>
<circle cx="335.561" cy="233.655" r="36.4816" transform="rotate(15.0837 335.561 233.655)" fill="#F4F4F5" fill-opacity="0.2"/>
<g clip-path="url(#clip4_184_39956)">
<path d="M336.69 240.555L335.752 241.16C335.752 241.16 333.523 242.595 330.231 236.148C326.939 229.701 329.169 228.267 329.169 228.267L329.76 227.885C331.215 226.947 331.857 224.987 331.27 223.27L330.071 219.761C329.344 217.635 327.067 216.767 325.265 217.927L322.034 220.007C321.142 220.583 320.417 221.444 320.177 222.553C319.566 225.391 319.082 231.717 323.542 240.455C328.274 249.719 334.517 251.719 337.174 252.148C338.015 252.285 338.851 252.012 339.594 251.533L342.519 249.648C344.496 248.376 344.844 245.378 343.213 243.677L340.676 241.027C339.605 239.911 337.988 239.718 336.69 240.554L336.69 240.555ZM338.735 218.468C338.874 218.155 339.126 217.909 339.434 217.784C339.742 217.66 340.082 217.666 340.38 217.803C340.417 217.822 340.54 217.882 340.604 217.917C340.731 217.984 340.906 218.085 341.122 218.218C341.554 218.49 342.149 218.906 342.837 219.498C344.212 220.686 345.955 222.583 347.521 225.463C349.087 228.344 349.759 230.894 350.037 232.749C350.175 233.676 350.214 234.427 350.219 234.961C350.221 235.229 350.213 235.497 350.194 235.765L350.188 235.819C350.151 236.163 349.987 236.482 349.73 236.706C349.473 236.93 349.144 237.042 348.815 237.018C348.49 236.987 348.193 236.823 347.989 236.561C347.785 236.3 347.691 235.962 347.727 235.622C347.745 235.429 347.751 235.236 347.746 235.043C347.738 234.427 347.687 233.814 347.594 233.208C347.356 231.625 346.77 229.369 345.361 226.777C343.954 224.185 342.405 222.515 341.231 221.501C340.784 221.111 340.309 220.756 339.81 220.439C339.657 220.345 339.501 220.255 339.342 220.17C339.044 220.032 338.814 219.776 338.7 219.457C338.586 219.139 338.598 218.783 338.734 218.468L338.735 218.468Z" fill="#F4F4F5" fill-opacity="0.8"/>
<path fill-rule="evenodd" clip-rule="evenodd" d="M337.545 224.313C337.63 224.166 337.742 224.038 337.873 223.936C338.005 223.833 338.154 223.758 338.312 223.715C338.471 223.672 338.634 223.662 338.795 223.685C338.955 223.708 339.109 223.764 339.247 223.849L339.251 223.852L339.256 223.855L339.268 223.862L339.297 223.881L339.376 223.938C339.752 224.222 340.103 224.54 340.426 224.887C341.072 225.579 341.916 226.665 342.809 228.31C343.702 229.954 344.165 231.272 344.406 232.211C344.526 232.681 344.589 233.054 344.621 233.323C344.64 233.465 344.653 233.607 344.66 233.75L344.659 233.786L344.66 233.8L344.658 233.805L344.659 233.807C344.659 233.807 344.659 233.811 343.424 233.846L344.659 233.811C344.654 234.148 344.524 234.473 344.295 234.716C344.066 234.96 343.757 235.103 343.434 235.114C343.111 235.125 342.799 235.005 342.566 234.777C342.333 234.55 342.196 234.235 342.186 233.898L342.186 233.88C342.152 233.56 342.095 233.244 342.015 232.934C341.829 232.21 341.446 231.088 340.649 229.622C339.853 228.157 339.131 227.244 338.632 226.711C338.42 226.482 338.19 226.27 337.945 226.079L337.931 226.068C337.657 225.893 337.462 225.61 337.39 225.281C337.318 224.952 337.373 224.605 337.545 224.313Z" fill="#F4F4F5" fill-opacity="0.8"/>
</g>
<circle cx="216.483" cy="234.255" r="36.4816" transform="rotate(15.0837 216.483 234.255)" fill="#F4F4F5" fill-opacity="0.2"/>
<g clip-path="url(#clip5_184_39956)">
<path d="M213.695 227.548L209.761 242.145L223.945 238.139L213.695 227.548ZM236.607 225.894L223.377 222.328L230.737 217.872L229.847 216.243L220.898 221.66L220.846 221.646L215.832 212.465L214.278 213.436L218.385 220.983L205.19 217.426C203.27 216.909 201.257 218.128 200.716 220.135L194.814 242.031C194.273 244.039 195.401 246.104 197.321 246.622L228.738 255.089C230.658 255.606 232.671 254.388 233.212 252.38L239.114 230.484C239.655 228.477 238.527 226.411 236.607 225.894ZM229.722 251.44L198.305 242.972L204.206 221.076L235.623 229.543L229.722 251.44Z" fill="#F4F4F5" fill-opacity="0.8"/>
</g>
<circle cx="422.521" cy="319.837" r="36.4816" transform="rotate(15.0837 422.521 319.837)" fill="#F4F4F5" fill-opacity="0.2"/>
<g clip-path="url(#clip6_184_39956)">
<path d="M419.733 313.13L415.799 327.727L429.984 323.721L419.733 313.13ZM442.645 311.476L429.415 307.91L436.775 303.454L435.885 301.825L426.936 307.242L426.884 307.228L421.87 298.048L420.316 299.018L424.423 306.565L411.228 303.008C409.308 302.491 407.295 303.71 406.754 305.717L400.852 327.613C400.311 329.621 401.44 331.686 403.359 332.204L434.776 340.671C436.696 341.188 438.709 339.97 439.25 337.962L445.152 316.066C445.693 314.059 444.565 311.993 442.645 311.476ZM435.76 337.022L404.343 328.554L410.244 306.658L441.661 315.125L435.76 337.022Z" fill="#F4F4F5" fill-opacity="0.8"/>
</g>
<circle cx="84.5138" cy="233.175" r="36.4816" transform="rotate(15.0837 84.5138 233.175)" fill="#F4F4F5" fill-opacity="0.2"/>
<g clip-path="url(#clip7_184_39956)">
<path d="M81.726 226.468L77.7918 241.065L91.9765 237.059L81.726 226.468ZM104.638 224.814L91.4077 221.248L98.768 216.792L97.8779 215.163L88.9293 220.58L88.8769 220.566L83.8626 211.385L82.3091 212.356L86.416 219.903L73.221 216.346C71.3011 215.829 69.2876 217.048 68.7467 219.055L62.8452 240.951C62.3043 242.959 63.4325 245.024 65.3524 245.542L96.769 254.009C98.6889 254.526 100.702 253.307 101.243 251.3L107.145 229.404C107.686 227.397 106.558 225.331 104.638 224.814ZM97.7526 250.359L66.336 241.892L72.2374 219.996L103.654 228.463L97.7526 250.359Z" fill="#F4F4F5" fill-opacity="0.8"/>
</g>
<circle cx="460.807" cy="211.883" r="36.4816" transform="rotate(15.0837 460.807 211.883)" fill="#F4F4F5" fill-opacity="0.2"/>
<g clip-path="url(#clip8_184_39956)">
<path d="M465.894 193.724C463.881 193.182 461.752 193.249 459.777 193.916C457.802 194.584 456.069 195.822 454.797 197.475C454.664 197.648 454.498 197.793 454.308 197.903C454.119 198.012 453.909 198.082 453.693 198.111C453.476 198.139 453.256 198.124 453.044 198.067C452.833 198.011 452.635 197.913 452.462 197.779C452.289 197.646 452.143 197.48 452.034 197.291C451.925 197.101 451.854 196.892 451.826 196.675C451.798 196.458 451.813 196.238 451.869 196.027C451.926 195.816 452.024 195.618 452.157 195.444C453.83 193.27 456.111 191.641 458.71 190.762C461.309 189.884 464.111 189.796 466.76 190.51C469.409 191.224 471.787 192.708 473.592 194.773C475.398 196.839 476.551 199.393 476.904 202.114C476.961 202.552 476.842 202.994 476.573 203.344C476.304 203.694 475.907 203.922 475.469 203.979C475.031 204.036 474.589 203.917 474.239 203.648C473.89 203.378 473.661 202.981 473.604 202.544C473.335 200.476 472.459 198.534 471.087 196.965C469.715 195.395 467.908 194.267 465.894 193.724Z" fill="#F4F4F5" fill-opacity="0.8"/>
<path d="M464.453 199.08C463.411 198.799 462.306 198.864 461.303 199.264C460.301 199.664 459.455 200.378 458.892 201.299C458.663 201.676 458.293 201.946 457.864 202.05C457.435 202.154 456.983 202.084 456.606 201.854C456.229 201.625 455.959 201.255 455.855 200.826C455.75 200.397 455.821 199.945 456.05 199.568C456.988 198.032 458.397 196.841 460.068 196.174C461.74 195.507 463.582 195.4 465.319 195.868C467.056 196.336 468.595 197.355 469.704 198.771C470.814 200.188 471.434 201.926 471.473 203.724C471.482 204.166 471.316 204.592 471.01 204.911C470.704 205.229 470.285 205.413 469.844 205.422C469.403 205.431 468.976 205.265 468.657 204.959C468.339 204.654 468.155 204.234 468.146 203.793C468.123 202.714 467.75 201.671 467.084 200.822C466.419 199.972 465.495 199.361 464.453 199.08Z" fill="#F4F4F5" fill-opacity="0.8"/>
<path d="M465.583 203.405C465.43 203.973 465.057 204.457 464.547 204.751C464.037 205.044 463.432 205.123 462.864 204.97C462.295 204.817 461.811 204.444 461.518 203.934C461.225 203.424 461.146 202.819 461.299 202.251C461.452 201.683 461.824 201.199 462.334 200.905C462.844 200.612 463.45 200.533 464.018 200.686C464.586 200.839 465.07 201.212 465.364 201.722C465.657 202.232 465.736 202.837 465.583 203.405Z" fill="#F4F4F5" fill-opacity="0.8"/>
<path fill-rule="evenodd" clip-rule="evenodd" d="M447.324 190.737C447.204 190.319 446.925 189.965 446.548 189.75C446.17 189.535 445.724 189.476 445.303 189.586C444.883 189.696 444.522 189.966 444.298 190.338C444.075 190.711 444.005 191.156 444.105 191.579L448.391 207.962L448.099 207.884C444.059 206.795 442.042 206.251 440.448 207.168C438.855 208.085 438.311 210.103 437.222 214.143C436.133 218.183 435.589 220.201 436.506 221.794C437.423 223.388 439.441 223.931 443.481 225.02L469.185 231.948C473.225 233.037 475.243 233.581 476.837 232.664C478.43 231.747 478.974 229.729 480.063 225.689C481.152 221.649 481.695 219.631 480.778 218.038C479.862 216.444 477.844 215.901 473.804 214.812L473.513 214.733L485.451 202.722C485.75 202.407 485.914 201.987 485.907 201.553C485.901 201.118 485.725 200.704 485.416 200.397C485.108 200.091 484.693 199.917 484.258 199.913C483.824 199.91 483.405 200.076 483.091 200.377L470.482 213.062L469.796 213.732L452.126 208.969L451.848 208.04L447.324 190.737ZM445.213 218.594C445.781 218.747 446.387 218.668 446.897 218.375C447.406 218.082 447.779 217.598 447.932 217.029C448.085 216.461 448.006 215.856 447.713 215.346C447.42 214.836 446.935 214.463 446.367 214.31C445.799 214.157 445.194 214.236 444.684 214.529C444.174 214.823 443.801 215.307 443.648 215.875C443.495 216.443 443.574 217.049 443.867 217.559C444.161 218.069 444.645 218.441 445.213 218.594ZM454.358 218.761C454.205 219.329 453.833 219.813 453.323 220.107C452.813 220.4 452.207 220.479 451.639 220.326C451.071 220.173 450.587 219.8 450.293 219.29C450 218.78 449.921 218.175 450.074 217.607C450.227 217.039 450.6 216.555 451.11 216.261C451.62 215.968 452.225 215.889 452.794 216.042C453.362 216.195 453.846 216.568 454.139 217.078C454.433 217.588 454.511 218.193 454.358 218.761ZM463.359 219.464C462.933 219.349 462.479 219.408 462.097 219.628C461.714 219.849 461.435 220.212 461.32 220.638C461.205 221.064 461.264 221.518 461.484 221.9C461.704 222.283 462.067 222.562 462.493 222.677L471.062 224.986C471.488 225.101 471.942 225.042 472.324 224.822C472.707 224.602 472.986 224.239 473.101 223.813C473.216 223.387 473.157 222.933 472.937 222.55C472.717 222.168 472.354 221.888 471.928 221.773L463.359 219.464Z" fill="#F4F4F5" fill-opacity="0.8"/>
</g>
<circle cx="122.8" cy="125.221" r="36.4816" transform="rotate(15.0837 122.8 125.221)" fill="#F4F4F5" fill-opacity="0.2"/>
<g clip-path="url(#clip9_184_39956)">
<path d="M127.888 107.062C125.875 106.519 123.746 106.586 121.77 107.254C119.795 107.921 118.062 109.16 116.79 110.812C116.657 110.985 116.491 111.131 116.302 111.24C116.112 111.349 115.903 111.42 115.686 111.448C115.469 111.476 115.249 111.462 115.038 111.405C114.827 111.348 114.629 111.25 114.456 111.117C114.282 110.984 114.137 110.817 114.028 110.628C113.919 110.438 113.848 110.229 113.82 110.012C113.791 109.796 113.806 109.575 113.863 109.364C113.92 109.153 114.018 108.955 114.151 108.782C115.824 106.607 118.104 104.978 120.703 104.1C123.303 103.221 126.104 103.134 128.753 103.848C131.402 104.561 133.78 106.045 135.586 108.111C137.392 110.176 138.544 112.731 138.898 115.452C138.955 115.889 138.836 116.332 138.566 116.681C138.297 117.031 137.9 117.259 137.462 117.316C137.025 117.373 136.582 117.254 136.233 116.985C135.883 116.716 135.655 116.319 135.598 115.881C135.329 113.813 134.453 111.872 133.08 110.302C131.708 108.732 129.901 107.605 127.888 107.062Z" fill="#F4F4F5" fill-opacity="0.8"/>
<path d="M126.447 112.417C125.405 112.137 124.299 112.201 123.297 112.601C122.294 113.001 121.448 113.715 120.886 114.636C120.656 115.013 120.286 115.283 119.858 115.388C119.429 115.492 118.976 115.421 118.599 115.192C118.222 114.962 117.952 114.592 117.848 114.164C117.744 113.735 117.814 113.282 118.044 112.905C118.981 111.369 120.391 110.179 122.062 109.512C123.733 108.845 125.575 108.737 127.312 109.206C129.05 109.674 130.588 110.692 131.698 112.109C132.807 113.525 133.428 115.263 133.466 117.062C133.476 117.503 133.309 117.93 133.003 118.248C132.698 118.567 132.278 118.75 131.837 118.76C131.396 118.769 130.969 118.602 130.651 118.296C130.332 117.991 130.148 117.571 130.139 117.13C130.116 116.051 129.743 115.009 129.078 114.159C128.412 113.309 127.489 112.698 126.447 112.417Z" fill="#F4F4F5" fill-opacity="0.8"/>
<path d="M127.576 116.743C127.423 117.311 127.051 117.795 126.541 118.088C126.031 118.382 125.425 118.461 124.857 118.307C124.289 118.154 123.805 117.782 123.511 117.272C123.218 116.762 123.139 116.156 123.292 115.588C123.445 115.02 123.818 114.536 124.328 114.243C124.838 113.949 125.443 113.87 126.012 114.023C126.58 114.176 127.064 114.549 127.357 115.059C127.651 115.569 127.729 116.175 127.576 116.743Z" fill="#F4F4F5" fill-opacity="0.8"/>
<path fill-rule="evenodd" clip-rule="evenodd" d="M109.317 104.074C109.197 103.656 108.919 103.302 108.541 103.087C108.164 102.872 107.717 102.814 107.297 102.923C106.876 103.033 106.516 103.303 106.292 103.676C106.068 104.048 105.999 104.493 106.099 104.916L110.384 121.3L110.093 121.221C106.053 120.133 104.035 119.589 102.442 120.506C100.848 121.423 100.304 123.44 99.2153 127.48C98.1265 131.52 97.5827 133.538 98.4996 135.131C99.4165 136.725 101.434 137.269 105.474 138.358L131.179 145.285C135.219 146.374 137.236 146.918 138.83 146.001C140.424 145.084 140.967 143.066 142.056 139.027C143.145 134.987 143.689 132.969 142.772 131.375C141.855 129.782 139.837 129.238 135.797 128.149L135.506 128.071L147.444 116.059C147.743 115.744 147.907 115.324 147.901 114.89C147.894 114.456 147.718 114.041 147.41 113.735C147.102 113.428 146.686 113.255 146.252 113.251C145.817 113.247 145.398 113.413 145.085 113.714L132.476 126.399L131.789 127.069L114.12 122.307L113.842 121.377L109.317 104.074ZM107.206 131.932C107.774 132.085 108.38 132.006 108.89 131.712C109.4 131.419 109.772 130.935 109.926 130.367C110.079 129.799 110 129.193 109.706 128.683C109.413 128.173 108.929 127.801 108.361 127.647C107.793 127.494 107.187 127.573 106.677 127.867C106.167 128.16 105.795 128.644 105.641 129.212C105.488 129.78 105.567 130.386 105.861 130.896C106.154 131.406 106.638 131.778 107.206 131.932ZM116.352 132.099C116.199 132.667 115.826 133.151 115.316 133.444C114.806 133.738 114.2 133.817 113.632 133.663C113.064 133.51 112.58 133.138 112.287 132.628C111.993 132.118 111.914 131.512 112.068 130.944C112.221 130.376 112.593 129.892 113.103 129.599C113.613 129.305 114.219 129.226 114.787 129.379C115.355 129.533 115.839 129.905 116.132 130.415C116.426 130.925 116.505 131.531 116.352 132.099ZM125.353 132.801C124.927 132.687 124.472 132.746 124.09 132.966C123.708 133.186 123.428 133.549 123.313 133.975C123.198 134.401 123.258 134.855 123.478 135.238C123.698 135.62 124.061 135.9 124.487 136.015L133.055 138.324C133.481 138.439 133.935 138.38 134.318 138.159C134.7 137.939 134.98 137.576 135.095 137.15C135.209 136.724 135.15 136.27 134.93 135.887C134.71 135.505 134.347 135.226 133.921 135.111L125.353 132.801Z" fill="#F4F4F5" fill-opacity="0.8"/>
</g>
<circle cx="171.427" cy="332.251" r="36.4816" transform="rotate(15.0837 171.427 332.251)" fill="#F4F4F5" fill-opacity="0.2"/>
<g clip-path="url(#clip10_184_39956)">
<path d="M183.427 315.827L169.464 312.064C168.307 311.752 167.079 311.892 166.05 312.453C165.021 313.013 164.276 313.949 163.979 315.053L156.345 343.376C156.047 344.48 156.222 345.664 156.829 346.665C157.437 347.667 158.429 348.405 159.586 348.717L173.549 352.48C174.706 352.792 175.934 352.652 176.963 352.092C177.992 351.531 178.737 350.596 179.035 349.491L186.668 321.169C186.966 320.064 186.792 318.881 186.184 317.879C185.576 316.877 184.585 316.139 183.427 315.827ZM167.016 348.933C165.568 348.542 164.699 347.111 165.072 345.728C165.445 344.345 166.915 343.544 168.364 343.934C169.812 344.325 170.681 345.756 170.308 347.139C169.935 348.522 168.465 349.323 167.016 348.933ZM176.667 344.385L160.958 340.152L167.245 316.827L182.953 321.061L176.667 344.385Z" fill="#F4F4F5" fill-opacity="0.8"/>
</g>
<circle cx="409.504" cy="22.4454" r="36.4816" transform="rotate(15.0837 409.504 22.4454)" fill="#F4F4F5" fill-opacity="0.2"/>
<g clip-path="url(#clip11_184_39956)">
<path d="M406.717 15.7376L402.782 30.3352L416.967 26.3292L406.717 15.7376ZM429.628 14.0836L416.398 10.518L423.758 6.06231L422.868 4.43278L413.92 9.84998L413.867 9.83586L408.853 0.655431L407.3 1.62639L411.406 9.17259L398.211 5.61633C396.292 5.09889 394.278 6.31775 393.737 8.32493L387.836 30.2214C387.295 32.2285 388.423 34.2941 390.343 34.8116L421.76 43.2789C423.679 43.7963 425.693 42.5774 426.234 40.5703L432.135 18.6738C432.676 16.6667 431.548 14.6011 429.628 14.0836ZM422.743 39.6295L391.326 31.1622L397.228 9.26574L428.645 17.733L422.743 39.6295Z" fill="#F4F4F5" fill-opacity="0.8"/>
</g>
<circle cx="295.772" cy="20.7183" r="36.4816" transform="rotate(15.0837 295.772 20.7183)" fill="#F4F4F5" fill-opacity="0.2"/>
<g clip-path="url(#clip12_184_39956)">
<path d="M300.86 2.55938C298.846 2.01699 296.717 2.0838 294.742 2.75135C292.767 3.41891 291.034 4.65723 289.762 6.30973C289.629 6.48305 289.463 6.62841 289.273 6.73753C289.084 6.84664 288.875 6.91736 288.658 6.94565C288.441 6.97394 288.221 6.95925 288.01 6.90242C287.798 6.84558 287.601 6.74772 287.427 6.61441C287.254 6.4811 287.108 6.31496 286.999 6.12547C286.89 5.93598 286.82 5.72685 286.791 5.51003C286.763 5.29321 286.778 5.07294 286.834 4.8618C286.891 4.65066 286.989 4.45278 287.122 4.27946C288.796 2.10496 291.076 0.475496 293.675 -0.402831C296.274 -1.28116 299.076 -1.36889 301.725 -0.654915C304.374 0.0590555 306.752 1.54265 308.557 3.6082C310.363 5.67375 311.516 8.22846 311.87 10.9492C311.926 11.3868 311.807 11.8292 311.538 12.1789C311.269 12.5286 310.872 12.7571 310.434 12.814C309.996 12.8709 309.554 12.7517 309.204 12.4825C308.855 12.2133 308.626 11.8162 308.569 11.3786C308.3 9.31089 307.424 7.36939 306.052 5.79959C304.68 4.22979 302.873 3.10219 300.86 2.55938Z" fill="#F4F4F5" fill-opacity="0.8"/>
<path d="M299.418 7.91493C298.376 7.63412 297.271 7.69854 296.269 8.09855C295.266 8.49856 294.42 9.21261 293.857 10.1338C293.628 10.5106 293.258 10.7809 292.829 10.8851C292.4 10.9893 291.948 10.9188 291.571 10.6893C291.194 10.4598 290.924 10.0899 290.82 9.66108C290.715 9.23228 290.786 8.77964 291.015 8.40276C291.953 6.86697 293.363 5.67633 295.034 5.00932C296.705 4.34231 298.547 4.23486 300.284 4.70308C302.021 5.17129 303.56 6.18994 304.669 7.60635C305.779 9.02276 306.4 10.7606 306.438 12.5594C306.447 13.0006 306.281 13.4273 305.975 13.7457C305.669 14.0641 305.25 14.248 304.809 14.2571C304.368 14.2662 303.941 14.0996 303.623 13.794C303.304 13.4885 303.12 13.0689 303.111 12.6278C303.088 11.5486 302.715 10.5062 302.049 9.65657C301.384 8.80695 300.461 8.19589 299.418 7.91493Z" fill="#F4F4F5" fill-opacity="0.8"/>
<path d="M300.548 12.2403C300.395 12.8084 300.022 13.2924 299.512 13.5858C299.002 13.8793 298.397 13.9581 297.829 13.805C297.26 13.6519 296.776 13.2794 296.483 12.7694C296.19 12.2594 296.111 11.6538 296.264 11.0856C296.417 10.5175 296.79 10.0335 297.299 9.74009C297.809 9.44664 298.415 9.36781 298.983 9.52092C299.551 9.67403 300.035 10.0466 300.329 10.5565C300.622 11.0665 300.701 11.6722 300.548 12.2403Z" fill="#F4F4F5" fill-opacity="0.8"/>
<path fill-rule="evenodd" clip-rule="evenodd" d="M282.289 -0.428369C282.169 -0.845967 281.89 -1.20011 281.513 -1.41511C281.135 -1.63011 280.689 -1.68891 280.268 -1.57895C279.848 -1.46899 279.487 -1.19898 279.264 -0.826638C279.04 -0.454296 278.97 -0.00915463 279.07 0.413648L283.356 16.7974L283.064 16.7189C279.025 15.6301 277.007 15.0862 275.413 16.0032C273.82 16.9201 273.276 18.9379 272.187 22.9778C271.098 27.0177 270.554 29.0355 271.471 30.629C272.388 32.2226 274.406 32.7664 278.446 33.8552L304.15 40.783C308.19 41.8718 310.208 42.4157 311.802 41.4987C313.395 40.5818 313.939 38.564 315.028 34.5241C316.117 30.4842 316.66 28.4664 315.744 26.8729C314.827 25.2793 312.809 24.7355 308.769 23.6467L308.478 23.5681L320.416 11.557C320.715 11.2417 320.879 10.822 320.872 10.3876C320.866 9.95315 320.69 9.53848 320.382 9.23219C320.073 8.9259 319.658 8.75228 319.223 8.74844C318.789 8.7446 318.37 8.91084 318.057 9.21164L305.447 21.8967L304.761 22.5665L287.091 17.8042L286.814 16.8746L282.289 -0.428369ZM280.178 27.4291C280.746 27.5822 281.352 27.5034 281.862 27.2099C282.372 26.9165 282.744 26.4325 282.897 25.8644C283.05 25.2963 282.971 24.6906 282.678 24.1806C282.385 23.6706 281.901 23.2981 281.332 23.145C280.764 22.9919 280.159 23.0707 279.649 23.3642C279.139 23.6576 278.766 24.1416 278.613 24.7097C278.46 25.2778 278.539 25.8835 278.832 26.3935C279.126 26.9035 279.61 27.276 280.178 27.4291ZM289.323 27.5963C289.17 28.1644 288.798 28.6484 288.288 28.9419C287.778 29.2353 287.172 29.3142 286.604 29.161C286.036 29.0079 285.552 28.6354 285.258 28.1254C284.965 27.6155 284.886 27.0098 285.039 26.4417C285.192 25.8736 285.565 25.3896 286.075 25.0961C286.585 24.8027 287.191 24.7238 287.759 24.877C288.327 25.0301 288.811 25.4026 289.104 25.9126C289.398 26.4225 289.476 27.0282 289.323 27.5963ZM298.324 28.299C297.898 28.1842 297.444 28.2433 297.062 28.4634C296.679 28.6835 296.4 29.0465 296.285 29.4726C296.17 29.8987 296.229 30.3529 296.449 30.7354C296.669 31.1179 297.032 31.3973 297.459 31.5121L306.027 33.8214C306.453 33.9362 306.907 33.8771 307.29 33.657C307.672 33.4369 307.951 33.0739 308.066 32.6478C308.181 32.2217 308.122 31.7675 307.902 31.385C307.682 31.0025 307.319 30.7231 306.893 30.6083L298.324 28.299Z" fill="#F4F4F5" fill-opacity="0.8"/>
</g>
<circle cx="297.792" cy="337.643" r="36.4816" transform="rotate(15.0837 297.792 337.643)" fill="#F4F4F5" fill-opacity="0.2"/>
<g clip-path="url(#clip13_184_39956)">
<path d="M302.879 319.484C300.866 318.941 298.737 319.008 296.762 319.676C294.786 320.343 293.053 321.582 291.782 323.234C291.648 323.407 291.482 323.553 291.293 323.662C291.103 323.771 290.894 323.842 290.677 323.87C290.46 323.898 290.24 323.884 290.029 323.827C289.818 323.77 289.62 323.672 289.447 323.539C289.273 323.405 289.128 323.239 289.019 323.05C288.91 322.86 288.839 322.651 288.811 322.434C288.782 322.218 288.797 321.997 288.854 321.786C288.911 321.575 289.009 321.377 289.142 321.204C290.815 319.029 293.095 317.4 295.695 316.521C298.294 315.643 301.095 315.555 303.744 316.269C306.393 316.983 308.771 318.467 310.577 320.533C312.383 322.598 313.535 325.153 313.889 327.873C313.946 328.311 313.827 328.753 313.558 329.103C313.288 329.453 312.891 329.681 312.454 329.738C312.016 329.795 311.574 329.676 311.224 329.407C310.874 329.138 310.646 328.741 310.589 328.303C310.32 326.235 309.444 324.294 308.072 322.724C306.699 321.154 304.892 320.027 302.879 319.484Z" fill="#F4F4F5" fill-opacity="0.8"/>
<path d="M301.438 324.839C300.396 324.558 299.291 324.623 298.288 325.023C297.286 325.423 296.44 326.137 295.877 327.058C295.647 327.435 295.278 327.705 294.849 327.809C294.42 327.914 293.967 327.843 293.59 327.614C293.214 327.384 292.943 327.014 292.839 326.585C292.735 326.157 292.805 325.704 293.035 325.327C293.972 323.791 295.382 322.601 297.053 321.934C298.724 321.267 300.566 321.159 302.304 321.627C304.041 322.096 305.58 323.114 306.689 324.531C307.799 325.947 308.419 327.685 308.458 329.484C308.467 329.925 308.3 330.352 307.995 330.67C307.689 330.988 307.27 331.172 306.828 331.181C306.387 331.19 305.96 331.024 305.642 330.718C305.324 330.413 305.14 329.993 305.131 329.552C305.107 328.473 304.735 327.431 304.069 326.581C303.403 325.731 302.48 325.12 301.438 324.839Z" fill="#F4F4F5" fill-opacity="0.8"/>
<path d="M302.567 329.165C302.414 329.733 302.042 330.217 301.532 330.51C301.022 330.804 300.416 330.882 299.848 330.729C299.28 330.576 298.796 330.204 298.503 329.694C298.209 329.184 298.13 328.578 298.283 328.01C298.437 327.442 298.809 326.958 299.319 326.664C299.829 326.371 300.435 326.292 301.003 326.445C301.571 326.598 302.055 326.971 302.348 327.481C302.642 327.991 302.721 328.596 302.567 329.165Z" fill="#F4F4F5" fill-opacity="0.8"/>
<path fill-rule="evenodd" clip-rule="evenodd" d="M284.308 316.496C284.188 316.078 283.91 315.724 283.532 315.509C283.155 315.294 282.708 315.235 282.288 315.345C281.868 315.455 281.507 315.725 281.283 316.098C281.059 316.47 280.99 316.915 281.09 317.338L285.375 333.722L285.084 333.643C281.044 332.554 279.026 332.011 277.433 332.927C275.839 333.844 275.295 335.862 274.207 339.902C273.118 343.942 272.574 345.96 273.491 347.553C274.408 349.147 276.426 349.691 280.465 350.78L306.17 357.707C310.21 358.796 312.228 359.34 313.821 358.423C315.415 357.506 315.959 355.488 317.047 351.448C318.136 347.409 318.68 345.391 317.763 343.797C316.846 342.204 314.828 341.66 310.788 340.571L310.497 340.492L322.436 328.481C322.734 328.166 322.898 327.746 322.892 327.312C322.885 326.877 322.709 326.463 322.401 326.157C322.093 325.85 321.677 325.677 321.243 325.673C320.808 325.669 320.39 325.835 320.076 326.136L307.467 338.821L306.781 339.491L289.111 334.729L288.833 333.799L284.308 316.496ZM282.197 344.353C282.765 344.507 283.371 344.428 283.881 344.134C284.391 343.841 284.764 343.357 284.917 342.789C285.07 342.221 284.991 341.615 284.698 341.105C284.404 340.595 283.92 340.222 283.352 340.069C282.784 339.916 282.178 339.995 281.668 340.288C281.158 340.582 280.786 341.066 280.633 341.634C280.48 342.202 280.558 342.808 280.852 343.318C281.145 343.828 281.629 344.2 282.197 344.353ZM291.343 344.521C291.19 345.089 290.817 345.573 290.307 345.866C289.797 346.16 289.192 346.238 288.624 346.085C288.055 345.932 287.571 345.56 287.278 345.05C286.985 344.54 286.906 343.934 287.059 343.366C287.212 342.798 287.584 342.314 288.094 342.02C288.604 341.727 289.21 341.648 289.778 341.801C290.346 341.954 290.83 342.327 291.124 342.837C291.417 343.347 291.496 343.953 291.343 344.521ZM300.344 345.223C299.918 345.109 299.464 345.168 299.081 345.388C298.699 345.608 298.419 345.971 298.305 346.397C298.19 346.823 298.249 347.277 298.469 347.66C298.689 348.042 299.052 348.322 299.478 348.436L308.046 350.746C308.472 350.861 308.927 350.801 309.309 350.581C309.692 350.361 309.971 349.998 310.086 349.572C310.201 349.146 310.141 348.692 309.921 348.309C309.701 347.927 309.338 347.647 308.912 347.533L300.344 345.223Z" fill="#F4F4F5" fill-opacity="0.8"/>
</g>
<circle cx="368.329" cy="137.082" r="36.4816" transform="rotate(15.0837 368.329 137.082)" fill="#F4F4F5" fill-opacity="0.2"/>
<g clip-path="url(#clip14_184_39956)">
<path d="M380.329 120.659L366.366 116.896C365.209 116.584 363.981 116.724 362.952 117.284C361.923 117.845 361.178 118.78 360.88 119.885L353.247 148.207C352.949 149.312 353.123 150.495 353.731 151.497C354.339 152.499 355.33 153.237 356.488 153.548L370.451 157.312C371.608 157.624 372.836 157.484 373.865 156.923C374.894 156.363 375.639 155.427 375.937 154.323L383.57 126C383.868 124.895 383.693 123.712 383.086 122.71C382.478 121.709 381.486 120.971 380.329 120.659ZM363.918 153.764C362.469 153.374 361.601 151.942 361.974 150.559C362.346 149.177 363.817 148.376 365.265 148.766C366.714 149.156 367.582 150.588 367.21 151.971C366.837 153.353 365.367 154.155 363.918 153.764ZM373.568 149.217L357.86 144.983L364.146 121.659L379.855 125.892L373.568 149.217Z" fill="#F4F4F5" fill-opacity="0.8"/>
</g>
<defs>
<clipPath id="clip0_184_39956">
<rect width="43.3836" height="41.4116" fill="white" transform="translate(484.188 88.5938) rotate(15.0837)"/>
</clipPath>
<clipPath id="clip1_184_39956">
<rect width="43.3836" height="41.4116" fill="white" transform="translate(146.181 1.93115) rotate(15.0837)"/>
</clipPath>
<clipPath id="clip2_184_39956">
<rect width="39.4396" height="41.4116" fill="white" transform="translate(237.015 100.199) rotate(15.0837)"/>
</clipPath>
<clipPath id="clip3_184_39956">
<rect width="39.4396" height="41.4116" fill="white" transform="translate(27.6969 297.782) rotate(15.0837)"/>
</clipPath>
<clipPath id="clip4_184_39956">
<rect width="39.4396" height="41.4116" fill="white" transform="translate(318.54 209.665) rotate(15.0837)"/>
</clipPath>
<clipPath id="clip5_184_39956">
<rect width="43.3836" height="45.3555" fill="white" transform="translate(202.905 205.067) rotate(15.0837)"/>
</clipPath>
<clipPath id="clip6_184_39956">
<rect width="43.3836" height="45.3555" fill="white" transform="translate(408.943 290.649) rotate(15.0837)"/>
</clipPath>
<clipPath id="clip7_184_39956">
<rect width="43.3836" height="45.3555" fill="white" transform="translate(70.9355 203.987) rotate(15.0837)"/>
</clipPath>
<clipPath id="clip8_184_39956">
<rect width="53.2435" height="53.2435" fill="white" transform="translate(442.031 179.251) rotate(15.0837)"/>
</clipPath>
<clipPath id="clip9_184_39956">
<rect width="53.2435" height="53.2435" fill="white" transform="translate(104.024 92.5884) rotate(15.0837)"/>
</clipPath>
<clipPath id="clip10_184_39956">
<rect width="43.3836" height="41.4116" fill="white" transform="translate(156.823 306.87) rotate(15.0837)"/>
</clipPath>
<clipPath id="clip11_184_39956">
<rect width="43.3836" height="45.3555" fill="white" transform="translate(395.926 -6.74316) rotate(15.0837)"/>
</clipPath>
<clipPath id="clip12_184_39956">
<rect width="53.2435" height="53.2435" fill="white" transform="translate(276.996 -11.9141) rotate(15.0837)"/>
</clipPath>
<clipPath id="clip13_184_39956">
<rect width="53.2435" height="53.2435" fill="white" transform="translate(279.015 305.01) rotate(15.0837)"/>
</clipPath>
<clipPath id="clip14_184_39956">
<rect width="43.3836" height="41.4116" fill="white" transform="translate(353.725 111.702) rotate(15.0837)"/>
</clipPath>
</defs>
</svg>
