<svg width="16" height="16" viewBox="0 0 16 16" fill="none" xmlns="http://www.w3.org/2000/svg">
<path fill-rule="evenodd" clip-rule="evenodd" d="M5.70329 0.0239641C4.53467 0.185713 3.49682 0.597498 2.62045 1.24728C2.26159 1.51332 1.6942 2.05942 1.40516 2.41689C0.756265 3.21945 0.285134 4.24983 0.0858554 5.30236C-0.0219489 5.87157 -0.0295599 6.99777 0.070562 7.56198C0.310433 8.91374 0.940143 10.1195 1.90341 11.0717C2.97692 12.1328 4.25606 12.7481 5.75625 12.925C6.1939 12.9766 7.18025 12.9479 7.59189 12.8716C8.9743 12.6153 10.1307 12.0018 11.1072 11.0064C12.8047 9.27597 13.3903 6.78968 12.6462 4.47135C11.9197 2.20812 9.95787 0.500599 7.59711 0.0768798C7.20412 0.00634928 6.06137 -0.0255573 5.70329 0.0239641ZM7.38271 1.22391C7.56941 1.25425 7.90891 1.34086 8.13709 1.41635C11.265 2.45123 12.7098 5.99033 11.2011 8.92174C10.1093 11.0432 7.69855 12.186 5.36384 11.6888C3.24059 11.2366 1.59487 9.52075 1.21728 7.36546C1.13331 6.886 1.13331 6.05843 1.21728 5.57898C1.64239 3.15243 3.60949 1.36783 6.09635 1.15252C6.36641 1.12916 7.02428 1.16564 7.38271 1.22391ZM11.9666 11.7814C11.7998 11.8883 11.7063 12.0594 11.7063 12.2581C11.7063 12.3504 11.7241 12.461 11.7458 12.504C11.8019 12.6149 15.063 15.881 15.1795 15.9429C15.6269 16.1807 16.1807 15.627 15.9429 15.1796C15.881 15.0631 12.6147 11.8022 12.5037 11.7461C12.3747 11.6808 12.0949 11.6992 11.9666 11.7814Z" fill="#4D4D4D"/>
</svg>
