<svg width="40" height="40" viewBox="0 0 40 40" fill="none" xmlns="http://www.w3.org/2000/svg">
<path d="M40 20C40 31.0457 31.0457 40 20 40C8.9543 40 0 31.0457 0 20C0 8.9543 8.9543 0 20 0C31.0457 0 40 8.9543 40 20Z" fill="#1E4146" fill-opacity="0.16"/>
<path fill-rule="evenodd" clip-rule="evenodd" d="M19.3463 11.0281C17.619 11.3151 16.248 12.5125 15.7595 14.1607C15.5908 14.7297 15.552 15.5695 15.6663 16.1769C16.0974 18.4679 18.332 20.0521 20.6367 19.7003C21.5733 19.5574 22.3693 19.1688 23.0342 18.5301C23.6598 17.9291 24.06 17.2639 24.2808 16.4582C24.3675 16.1416 24.3831 15.9661 24.3806 15.3329C24.3778 14.6565 24.3651 14.5422 24.2513 14.1702C23.7655 12.5837 22.4983 11.4109 20.9169 11.0844C20.5234 11.0031 19.6788 10.9728 19.3463 11.0281ZM19.3463 21.4835C18.2587 21.5245 16.9529 21.7184 16.3522 21.9282C14.8101 22.467 13.6416 23.6994 13.188 25.2655C13.0298 25.8117 12.9633 26.4623 13.0199 26.9092C13.1416 27.8695 13.857 28.6793 14.8073 28.9324C15.0177 28.9885 15.8673 28.9995 20.0034 29C24.6765 29.0005 24.9651 28.9957 25.2614 28.9136C25.9993 28.7088 26.603 28.1381 26.8757 27.3875C27.1238 26.7048 26.991 25.5079 26.5622 24.5616C25.9678 23.2499 24.6554 22.1518 23.2703 21.8072C22.5614 21.6309 20.5465 21.4267 19.8618 21.4619C19.7716 21.4665 19.5396 21.4763 19.3463 21.4835Z" fill="#111111"/>
</svg>
