<svg width="44" height="44" viewBox="0 0 44 44" fill="none" xmlns="http://www.w3.org/2000/svg">
<circle cx="22" cy="22" r="22" fill="#D9D9D9" fill-opacity="0.1"/>
<g clip-path="url(#clip0_184_41170)">
<path fill-rule="evenodd" clip-rule="evenodd" d="M33.435 15.9722C33.613 15.4239 33.435 15.0253 32.6475 15.0253H30.029C29.3685 15.0253 29.0635 15.3743 28.8855 15.7476C28.8855 15.7476 27.5385 18.9365 25.6575 21.004C25.0475 21.6019 24.768 21.8012 24.4375 21.8012C24.2595 21.8012 24.0305 21.6019 24.0305 21.054V15.9465C24.0305 15.299 23.8275 15 23.268 15H19.15C18.743 15 18.489 15.299 18.489 15.5979C18.489 16.2206 19.4295 16.3703 19.531 18.114V21.9028C19.531 22.7248 19.381 22.875 19.048 22.875C18.1585 22.875 15.998 19.6613 14.702 15.9994C14.45 15.2742 14.194 15 13.533 15H10.8895C10.127 15 10 15.3485 10 15.7224C10 16.3951 10.8895 19.7828 14.143 24.2667C16.3035 27.3292 19.379 28.9752 22.1495 28.9752C23.8275 28.9752 24.0305 28.6014 24.0305 27.9787V25.6619C24.0305 24.9147 24.183 24.7903 24.717 24.7903C25.098 24.7903 25.7845 24.9891 27.335 26.4591C29.114 28.2028 29.419 29 30.4105 29H33.0285C33.791 29 34.147 28.6262 33.9435 27.9038C33.715 27.1815 32.8505 26.1353 31.732 24.8899C31.122 24.1928 30.207 23.4204 29.9275 23.0466C29.5465 22.5483 29.648 22.349 29.9275 21.9008C29.902 21.9008 33.105 17.4665 33.435 15.9703" fill="white"/>
</g>
<defs>
<clipPath id="clip0_184_41170">
<rect width="24" height="24" fill="white" transform="translate(10 10)"/>
</clipPath>
</defs>
</svg>
