<svg width="34" height="26" viewBox="0 0 34 26" fill="none" xmlns="http://www.w3.org/2000/svg">
<g id="arrow/active">
<path id="Ellipse 3" d="M33.5 13C33.5 20.1797 27.6797 26 20.5 26C13.3203 26 7.5 20.1797 7.5 13C7.5 5.8203 13.3203 0 20.5 0C27.6797 0 33.5 5.8203 33.5 13Z" fill="#31C880"/>
<path id="Arrow 1 (Stroke)" fill-rule="evenodd" clip-rule="evenodd" d="M17.0862 9.1591L20.3498 12.6159C20.5501 12.828 20.5501 13.172 20.3498 13.3841L17.0862 16.8409C16.886 17.053 16.5613 17.053 16.361 16.8409C16.1607 16.6288 16.1607 16.2849 16.361 16.0727L18.7491 13.5432H0.5V12.4568H18.7491L16.361 9.92728C16.1607 9.71515 16.1607 9.37122 16.361 9.1591C16.5613 8.94697 16.886 8.94697 17.0862 9.1591Z" fill="#111111" fill-opacity="0.7"/>
</g>
</svg>
