<svg width="17" height="16" viewBox="0 0 17 16" fill="none" xmlns="http://www.w3.org/2000/svg">
<path d="M3.41889 6.92444C4.77889 9.44 6.97 11.5022 9.64278 12.7822L11.7206 10.8267C11.985 10.5778 12.3533 10.5067 12.6839 10.6044C13.7417 10.9333 14.875 11.1111 16.0556 11.1111C16.306 11.1111 16.5463 11.2048 16.7234 11.3715C16.9005 11.5382 17 11.7643 17 12V15.1111C17 15.3469 16.9005 15.573 16.7234 15.7397C16.5463 15.9064 16.306 16 16.0556 16C11.7974 16 7.71356 14.4079 4.70256 11.5741C1.69156 8.74017 0 4.8966 0 0.888889C0 0.653141 0.0995036 0.427048 0.276621 0.260349C0.453739 0.0936505 0.693962 0 0.944444 0H4.25C4.50048 0 4.74071 0.0936505 4.91782 0.260349C5.09494 0.427048 5.19444 0.653141 5.19444 0.888889C5.19444 2 5.38333 3.06667 5.73278 4.06222C5.83667 4.37333 5.76111 4.72 5.49667 4.96889L3.41889 6.92444Z" fill="#111111"/>
</svg>
