<svg width="40" height="40" viewBox="0 0 40 40" fill="none" xmlns="http://www.w3.org/2000/svg">
<circle cx="20" cy="20" r="20" fill="#F4F4F5"/>
<path d="M23.2083 9.9165H15.875C15.2672 9.9165 14.6843 10.1579 14.2546 10.5877C13.8248 11.0175 13.5833 11.6004 13.5833 12.2082V27.7915C13.5833 28.3993 13.8248 28.9822 14.2546 29.412C14.6843 29.8417 15.2672 30.0832 15.875 30.0832H23.2083C23.8161 30.0832 24.399 29.8417 24.8288 29.412C25.2586 28.9822 25.5 28.3993 25.5 27.7915V12.2082C25.5 11.6004 25.2586 11.0175 24.8288 10.5877C24.399 10.1579 23.8161 9.9165 23.2083 9.9165ZM19.5417 29.1665C18.7808 29.1665 18.1667 28.5523 18.1667 27.7915C18.1667 27.0307 18.7808 26.4165 19.5417 26.4165C20.3025 26.4165 20.9167 27.0307 20.9167 27.7915C20.9167 28.5523 20.3025 29.1665 19.5417 29.1665ZM23.6667 25.4998H15.4167V12.6665H23.6667V25.4998Z" fill="#252527"/>
</svg>
