<svg width="40" height="40" viewBox="0 0 40 40" fill="none" xmlns="http://www.w3.org/2000/svg">
<circle cx="20" cy="20" r="20" fill="#F4F4F5"/>
<path d="M17.5455 18.4V24.8L23.2727 21.6L17.5455 18.4ZM27.3636 15.2H21.1618L23.8536 12.568L23.2727 12L20 15.2H19.9755L16.7027 12L16.1382 12.568L18.8218 15.2H12.6364C11.7364 15.2 11 15.92 11 16.8V26.4C11 27.28 11.7364 28 12.6364 28H27.3636C28.2636 28 29 27.28 29 26.4V16.8C29 15.92 28.2636 15.2 27.3636 15.2ZM27.3636 26.4H12.6364V16.8H27.3636V26.4Z" fill="#252527"/>
<rect x="11.0743" y="15.4087" width="17.8512" height="12.5217" rx="3" fill="#252527"/>
<path d="M23.5702 21.6696L18.2148 24.9229L18.2148 18.4164L23.5702 21.6696Z" fill="white"/>
</svg>
