<svg width="40" height="40" viewBox="0 0 40 40" fill="none" xmlns="http://www.w3.org/2000/svg">
<circle cx="20" cy="20" r="20" fill="#F4F4F5"/>
<path d="M20.077 12.2084C19.2155 12.2085 18.3733 12.4641 17.657 12.9428C16.9407 13.4215 16.3824 14.1019 16.0528 14.8979C16.0183 14.9814 15.9676 15.0573 15.9038 15.1212C15.8399 15.1851 15.7641 15.2358 15.6806 15.2704C15.5971 15.305 15.5077 15.3228 15.4173 15.3228C15.327 15.3229 15.2375 15.3051 15.154 15.2705C15.0706 15.236 14.9947 15.1853 14.9308 15.1215C14.8669 15.0576 14.8162 14.9818 14.7816 14.8983C14.747 14.8149 14.7292 14.7254 14.7291 14.635C14.7291 14.5447 14.7469 14.4552 14.7814 14.3717C15.2151 13.3243 15.9496 12.429 16.8922 11.7991C17.8347 11.1692 18.9429 10.833 20.0765 10.833C21.2102 10.833 22.3184 11.1692 23.2609 11.7991C24.2035 12.429 24.938 13.3243 25.3717 14.3717C25.4414 14.5402 25.4414 14.7295 25.3716 14.898C25.3018 15.0665 25.168 15.2003 24.9995 15.2701C24.831 15.3399 24.6417 15.3398 24.4733 15.27C24.3048 15.2003 24.1709 15.0664 24.1012 14.8979C23.7716 14.1019 23.2133 13.4215 22.497 12.9428C21.7807 12.4641 20.9385 12.2085 20.077 12.2084Z" fill="#252527"/>
<path d="M20.0779 14.5C19.6319 14.5 19.1979 14.6445 18.8409 14.9119C18.484 15.1793 18.2233 15.5551 18.0979 15.9831C18.0468 16.1582 17.9283 16.3058 17.7684 16.3934C17.6086 16.4811 17.4204 16.5017 17.2454 16.4506C17.0703 16.3996 16.9227 16.2811 16.8351 16.1212C16.7474 15.9613 16.7268 15.7732 16.7779 15.5981C16.9867 14.8846 17.4211 14.258 18.0161 13.8122C18.611 13.3664 19.3344 13.1255 20.0779 13.1255C20.8213 13.1255 21.5447 13.3664 22.1397 13.8122C22.7346 14.258 23.1691 14.8846 23.3779 15.5981C23.4289 15.7732 23.4083 15.9613 23.3207 16.1212C23.233 16.2811 23.0854 16.3996 22.9104 16.4506C22.7353 16.5017 22.5472 16.4811 22.3873 16.3934C22.2274 16.3058 22.1089 16.1582 22.0579 15.9831C21.9325 15.5551 21.6717 15.1793 21.3148 14.9119C20.9578 14.6445 20.5239 14.5 20.0779 14.5Z" fill="#252527"/>
<path d="M20.9937 16.1042C20.9937 16.3473 20.8971 16.5804 20.7252 16.7523C20.5533 16.9243 20.3201 17.0208 20.077 17.0208C19.8339 17.0208 19.6007 16.9243 19.4288 16.7523C19.2569 16.5804 19.1603 16.3473 19.1603 16.1042C19.1603 15.8611 19.2569 15.6279 19.4288 15.456C19.6007 15.2841 19.8339 15.1875 20.077 15.1875C20.3201 15.1875 20.5533 15.2841 20.7252 15.456C20.8971 15.6279 20.9937 15.8611 20.9937 16.1042Z" fill="#252527"/>
<path fill-rule="evenodd" clip-rule="evenodd" d="M12.3467 13.013C12.254 12.8593 12.1048 12.748 11.9311 12.7028C11.7573 12.6576 11.5728 12.6822 11.417 12.7712C11.2611 12.8603 11.1462 13.0068 11.097 13.1794C11.0477 13.3521 11.0679 13.5371 11.1532 13.695L14.6246 19.7707H14.5C12.7711 19.7707 11.9076 19.7707 11.3705 20.3079C10.8333 20.845 10.8333 21.7085 10.8333 23.4374C10.8333 25.1662 10.8333 26.0297 11.3705 26.5669C11.9076 27.104 12.7711 27.104 14.5 27.104H25.5C27.2288 27.104 28.0923 27.104 28.6295 26.5669C29.1666 26.0297 29.1666 25.1662 29.1666 23.4374C29.1666 21.7085 29.1666 20.845 28.6295 20.3079C28.0923 19.7707 27.2288 19.7707 25.5 19.7707H25.3753L28.8467 13.695C28.9321 13.5371 28.9523 13.3521 28.903 13.1794C28.8537 13.0068 28.7389 12.8603 28.583 12.7712C28.4271 12.6822 28.2426 12.6576 28.0689 12.7028C27.8951 12.748 27.746 12.8593 27.6532 13.013L23.9866 19.4297L23.7849 19.7707H16.2233L16.0125 19.4297L12.3467 13.013ZM14.5 24.354C14.7431 24.354 14.9763 24.2575 15.1482 24.0856C15.3201 23.9136 15.4166 23.6805 15.4166 23.4374C15.4166 23.1943 15.3201 22.9611 15.1482 22.7892C14.9763 22.6173 14.7431 22.5207 14.5 22.5207C14.2569 22.5207 14.0237 22.6173 13.8518 22.7892C13.6799 22.9611 13.5833 23.1943 13.5833 23.4374C13.5833 23.6805 13.6799 23.9136 13.8518 24.0856C14.0237 24.2575 14.2569 24.354 14.5 24.354ZM18.1666 23.4374C18.1666 23.6805 18.0701 23.9136 17.8982 24.0856C17.7263 24.2575 17.4931 24.354 17.25 24.354C17.0069 24.354 16.7737 24.2575 16.6018 24.0856C16.4299 23.9136 16.3333 23.6805 16.3333 23.4374C16.3333 23.1943 16.4299 22.9611 16.6018 22.7892C16.7737 22.6173 17.0069 22.5207 17.25 22.5207C17.4931 22.5207 17.7263 22.6173 17.8982 22.7892C18.0701 22.9611 18.1666 23.1943 18.1666 23.4374ZM21.8333 22.7499C21.651 22.7499 21.4761 22.8223 21.3472 22.9512C21.2182 23.0802 21.1458 23.255 21.1458 23.4374C21.1458 23.6197 21.2182 23.7946 21.3472 23.9235C21.4761 24.0524 21.651 24.1249 21.8333 24.1249H25.5C25.6823 24.1249 25.8572 24.0524 25.9861 23.9235C26.115 23.7946 26.1875 23.6197 26.1875 23.4374C26.1875 23.255 26.115 23.0802 25.9861 22.9512C25.8572 22.8223 25.6823 22.7499 25.5 22.7499H21.8333Z" fill="#252527"/>
</svg>
