<svg width="28" height="28" viewBox="0 0 28 28" fill="none" xmlns="http://www.w3.org/2000/svg">
<g id="icon_Playmarket">
<path id="Vector" d="M20.6568 18.3124C24.2081 16.4877 26.9003 15.0974 27.1323 14.9892C27.8746 14.6199 28.6412 13.6422 27.1323 12.8827C26.6451 12.6439 24.0221 11.2968 20.6568 9.55957L15.9916 13.9684L20.6568 18.3123V18.3124Z" fill="#FFD900"/>
<path id="Vector_2" d="M15.9916 13.9689L1.13681 27.9785C1.48549 28.0217 1.87913 27.9352 2.34322 27.6964C3.31759 27.1973 13.6468 21.9189 20.6568 18.3139L15.9916 13.9689Z" fill="#F43249"/>
<path id="Vector_3" d="M15.9917 13.9687L20.657 9.58156C20.657 9.58156 3.38819 0.762696 2.34336 0.242108C1.94972 0.0239428 1.5086 -0.0408618 1.11386 0.0239428L15.9917 13.9687V13.9687Z" fill="#00EE76"/>
<path id="Vector_4" d="M15.9917 13.9688L1.11383 0.0240479C0.510023 0.154681 -0.000244141 0.653872 -0.000244141 1.67478V26.3277C-0.000244141 27.2621 0.3946 27.9351 1.13692 28L15.9917 13.9688Z" fill="#00D3FF"/>
</g>
</svg>
