<svg width="28" height="28" viewBox="0 0 28 28" fill="none" xmlns="http://www.w3.org/2000/svg">
<g id="icon_Appstore">
<path id="Vector" d="M6.13176 0H21.8678C25.2544 0 27.9998 2.74531 27.9998 6.132V21.868C27.9998 25.2547 25.2544 28 21.8678 28H6.13176C2.74507 28 -0.000244141 25.2547 -0.000244141 21.868V6.132C-0.000244141 2.74531 2.74507 0 6.13176 0Z" fill="url(#paint0_linear_424_37075)"/>
<path id="Vector_2" d="M8.97307 20.3229L8.9757 20.3238L8.01834 21.9819C7.66889 22.5872 6.89495 22.7945 6.28967 22.4451C5.6845 22.0956 5.47701 21.3217 5.82646 20.7164L6.53171 19.4949L6.59942 19.3777C6.72028 19.204 7.01854 18.9041 7.61518 18.9605C7.61518 18.9605 9.01923 19.1129 9.12084 19.8426C9.12084 19.8426 9.13462 20.0827 8.97307 20.3229V20.3229ZM22.5512 16.0879H19.5659C19.3626 16.0742 19.2739 16.0016 19.2389 15.9594L19.2367 15.9555L16.0411 10.4205L16.0369 10.4232L15.8453 10.1485C15.5312 9.66812 15.0324 10.8966 15.0324 10.8966C14.4369 12.2656 15.117 13.8219 15.354 14.2923L19.7927 21.9802C20.142 22.5854 20.9159 22.7929 21.5213 22.4433C22.1265 22.0939 22.334 21.32 21.9844 20.7147L20.8746 18.7923C20.8531 18.7457 20.8157 18.6193 21.0433 18.6187H22.5512C23.2501 18.6187 23.8167 18.0522 23.8167 17.3532C23.8167 16.6543 23.2501 16.0878 22.5512 16.0878V16.0879ZM16.7528 17.8081C16.7528 17.8081 16.9122 18.6187 16.2956 18.6187H5.25979C4.56089 18.6187 3.99432 18.0522 3.99432 17.3532C3.99432 16.6543 4.56089 16.0878 5.25979 16.0878H8.09698C8.55504 16.0613 8.66354 15.7968 8.66354 15.7968L8.66617 15.7982L12.3696 9.38353L12.3685 9.38331C12.436 9.25939 12.3798 9.14225 12.37 9.12376L11.1469 7.00528C10.7974 6.40011 11.0048 5.62606 11.6101 5.27672C12.2154 4.92726 12.9893 5.13453 13.3388 5.73981L13.906 6.72233L14.4722 5.74156C14.8217 5.13639 15.5956 4.9289 16.2009 5.27847C16.8062 5.62792 17.0136 6.40175 16.6641 7.00703L11.5106 15.9331C11.488 15.9875 11.4812 16.0728 11.6488 16.0878H14.7293L14.7299 16.1179C14.7299 16.1179 16.5103 16.1455 16.7528 17.8081Z" fill="white"/>
</g>
<defs>
<linearGradient id="paint0_linear_424_37075" x1="13.9998" y1="0" x2="13.9998" y2="28" gradientUnits="userSpaceOnUse">
<stop stop-color="#17C9FB"/>
<stop offset="1" stop-color="#1A74E8"/>
</linearGradient>
</defs>
</svg>
