<svg width="28" height="28" viewBox="0 0 28 28" fill="none" xmlns="http://www.w3.org/2000/svg">
<g id="icon_Appstore">
<path id="Vector" d="M6.132 0H21.868C25.2547 0 28 2.74531 28 6.132V21.868C28 25.2547 25.2547 28 21.868 28H6.132C2.74531 28 0 25.2547 0 21.868V6.132C0 2.74531 2.74531 0 6.132 0Z" fill="url(#paint0_linear_882_14460)"/>
<path id="Vector_2" d="M8.97289 20.3229L8.97552 20.3238L8.01816 21.9819C7.6687 22.5872 6.89477 22.7945 6.28948 22.4451C5.68431 22.0956 5.47683 21.3217 5.82628 20.7164L6.53153 19.4949L6.59923 19.3777C6.72009 19.204 7.01836 18.9041 7.615 18.9605C7.615 18.9605 9.01905 19.1129 9.12066 19.8426C9.12066 19.8426 9.13444 20.0827 8.97289 20.3229V20.3229ZM22.551 16.0879H19.5658C19.3624 16.0742 19.2737 16.0016 19.2387 15.9594L19.2365 15.9555L16.0409 10.4205L16.0368 10.4232L15.8451 10.1485C15.531 9.66812 15.0323 10.8966 15.0323 10.8966C14.4367 12.2656 15.1168 13.8219 15.3538 14.2923L19.7925 21.9802C20.1418 22.5854 20.9158 22.7929 21.5212 22.4433C22.1263 22.0939 22.3338 21.32 21.9843 20.7147L20.8744 18.7923C20.8529 18.7457 20.8155 18.6193 21.0431 18.6187H22.551C23.2499 18.6187 23.8165 18.0522 23.8165 17.3532C23.8165 16.6543 23.2499 16.0878 22.551 16.0878V16.0879ZM16.7526 17.8081C16.7526 17.8081 16.912 18.6187 16.2954 18.6187H5.25961C4.5607 18.6187 3.99414 18.0522 3.99414 17.3532C3.99414 16.6543 4.5607 16.0878 5.25961 16.0878H8.0968C8.55486 16.0613 8.66336 15.7968 8.66336 15.7968L8.66598 15.7982L12.3694 9.38353L12.3683 9.38331C12.4358 9.25939 12.3796 9.14225 12.3699 9.12376L11.1467 7.00528C10.7973 6.40011 11.0046 5.62606 11.6099 5.27672C12.2152 4.92726 12.9891 5.13453 13.3386 5.73981L13.9058 6.72233L14.472 5.74156C14.8215 5.13639 15.5954 4.9289 16.2007 5.27847C16.806 5.62792 17.0134 6.40175 16.6639 7.00703L11.5104 15.9331C11.4879 15.9875 11.481 16.0728 11.6486 16.0878H14.7291L14.7297 16.1179C14.7297 16.1179 16.5101 16.1455 16.7526 17.8081Z" fill="white"/>
</g>
<defs>
<linearGradient id="paint0_linear_882_14460" x1="14" y1="0" x2="14" y2="28" gradientUnits="userSpaceOnUse">
<stop stop-color="#17C9FB"/>
<stop offset="1" stop-color="#1A74E8"/>
</linearGradient>
</defs>
</svg>
