<svg width="28" height="28" viewBox="0 0 28 28" fill="none" xmlns="http://www.w3.org/2000/svg">
<g id="icon_Playmarket">
<path id="Vector" d="M20.6575 18.3124C24.2088 16.4877 26.9009 15.0974 27.1329 14.9892C27.8753 14.6199 28.6419 13.6422 27.1329 12.8827C26.6458 12.6439 24.0228 11.2968 20.6575 9.55957L15.9922 13.9684L20.6575 18.3123V18.3124Z" fill="#FFD900"/>
<path id="Vector_2" d="M15.9915 13.9688L1.13672 27.9783C1.48539 28.0215 1.87903 27.935 2.34313 27.6963C3.3175 27.1972 13.6467 21.9187 20.6567 18.3137L15.9915 13.9688Z" fill="#F43249"/>
<path id="Vector_3" d="M15.9921 13.9687L20.6574 9.58156C20.6574 9.58156 3.38858 0.762696 2.34376 0.242108C1.95012 0.0239428 1.50899 -0.0408618 1.11426 0.0239428L15.9921 13.9687V13.9687Z" fill="#00EE76"/>
<path id="Vector_4" d="M15.9919 13.9687L1.11408 0.0239258C0.510267 0.154559 0 0.65375 0 1.67465V26.3276C0 27.262 0.394844 27.935 1.13716 27.9999L15.9919 13.9687Z" fill="#00D3FF"/>
</g>
</svg>
