<svg width="32" height="44" viewBox="0 0 32 44" fill="none" xmlns="http://www.w3.org/2000/svg">
<path d="M2 1H19.6991C19.9771 1 20.2425 1.1157 20.4317 1.31935L30.7324 12.4063C30.9043 12.5913 30.9998 12.8345 30.9998 13.087V42C30.9998 42.5523 30.5521 43 29.9998 43H2C1.44772 43 1 42.5523 1 42V2C1 1.44772 1.44771 1 2 1Z" fill="#19D894" stroke="#19D894"/>
<path d="M20.3635 12.9144L20.9238 2.05915L30.0653 11.9299L20.3635 12.9144Z" fill="#08BD7C" stroke="#08BD7C"/>
<path d="M9.36685 24.6924C10.3665 24.6924 11.0958 24.9021 11.555 25.3214C12.0142 25.7374 12.2438 26.3115 12.2438 27.0436C12.2438 27.3736 12.1926 27.6899 12.0901 27.9924C11.9877 28.2915 11.8199 28.5579 11.5868 28.7916C11.3572 29.0254 11.0499 29.211 10.6649 29.3485C10.2799 29.4826 9.80484 29.5496 9.2397 29.5496H8.53503V32.2308H6.89258V24.6924H9.36685ZM9.28208 26.0021H8.53503V28.2399H9.07545C9.38275 28.2399 9.64943 28.2004 9.87549 28.1213C10.1015 28.0422 10.2764 27.9185 10.4 27.75C10.5236 27.5816 10.5854 27.365 10.5854 27.1004C10.5854 26.7291 10.4795 26.4541 10.2676 26.2754C10.0556 26.0932 9.72713 26.0021 9.28208 26.0021Z" fill="white"/>
<path d="M20.1329 28.3894C20.1329 29.2385 19.9651 29.9483 19.6295 30.519C19.2975 31.0862 18.8154 31.5141 18.1831 31.8029C17.5509 32.0882 16.7897 32.2308 15.8996 32.2308H13.7061V24.6924H16.138C16.9504 24.6924 17.6551 24.8333 18.252 25.1152C18.8489 25.3936 19.3116 25.8079 19.6401 26.3579C19.9686 26.9044 20.1329 27.5816 20.1329 28.3894ZM18.4268 28.4307C18.4268 27.8738 18.3421 27.4166 18.1725 27.0591C18.0065 26.6982 17.7593 26.4318 17.4308 26.2599C17.1058 26.088 16.7031 26.0021 16.2228 26.0021H15.3486V30.9108H16.0532C16.855 30.9108 17.4502 30.7029 17.8387 30.2869C18.2308 29.871 18.4268 29.2522 18.4268 28.4307Z" fill="white"/>
<path d="M23.3542 32.2308H21.7382V24.6924H26.1782V26.0021H23.3542V27.946H25.9821V29.2505H23.3542V32.2308Z" fill="white"/>
</svg>
